<svg width="166" height="166" viewBox="0 0 166 166" fill="none" xmlns="http://www.w3.org/2000/svg">
<g filter="url(#filter0_d_0:5)">
<mask id="mask0_0:5" style="mask-type:alpha" maskUnits="userSpaceOnUse" x="23" y="12" width="120" height="120">
<rect x="23" y="12" width="120" height="120" fill="white"/>
</mask>
<g mask="url(#mask0_0:5)">
<path fill-rule="evenodd" clip-rule="evenodd" d="M23 72C23 38.8629 49.8629 12 83 12C116.137 12 143 38.8629 143 72C143 105.137 116.137 132 83 132C49.8629 132 23 105.137 23 72Z" fill="white"/>
<mask id="mask1_0:5" style="mask-type:alpha" maskUnits="userSpaceOnUse" x="23" y="12" width="120" height="120">
<path fill-rule="evenodd" clip-rule="evenodd" d="M23 72C23 38.8629 49.8629 12 83 12C116.137 12 143 38.8629 143 72C143 105.137 116.137 132 83 132C49.8629 132 23 105.137 23 72Z" fill="white"/>
</mask>
<g mask="url(#mask1_0:5)">
</g>
</g>
<path d="M59.8352 43.038H106.184C109.384 43.038 111.978 45.6279 111.978 48.8227V95.1001C111.978 98.295 109.384 100.885 106.184 100.885H59.8352C56.6354 100.885 54.0415 98.295 54.0415 95.1001V48.8227C54.0415 45.6279 56.6354 43.038 59.8352 43.038Z" fill="#002755"/>
<path d="M52.3446 70.2669L66.4774 84.3778C67.789 85.6874 69.5678 86.4229 71.4227 86.4229C73.2772 86.4229 75.0564 85.6874 76.3676 84.3778L106.185 54.6074L108.064 56.4837C109.622 58.0393 112.148 58.0393 113.706 56.4837C114.01 56.181 114.262 55.8313 114.454 55.4483C114.731 54.8954 114.875 54.2854 114.875 53.6669V45.9302C114.875 42.7353 112.281 40.1455 109.081 40.1455H101.333C100.714 40.1455 100.103 40.2895 99.5484 40.5663C97.5775 41.55 96.7786 43.943 97.7639 45.9109C97.9557 46.2938 98.2082 46.6433 98.5113 46.9463L100.391 48.8227L71.4227 77.7461L58.1382 64.4822C56.5385 62.885 53.9447 62.885 52.3446 64.4822C50.7375 66.0725 50.7128 68.6492 52.3055 70.2538C52.314 70.2626 52.3229 70.2715 52.3446 70.2669Z" fill="#5CBEFF"/>
<path d="M54.6412 66.7755C55.4413 65.9771 56.7382 65.9771 57.5383 66.7755L59.235 68.4701C60.0351 69.2685 60.0351 70.5634 59.235 71.3622C58.435 72.161 57.1381 72.161 56.3384 71.3622L54.6412 69.6681C53.8416 68.8693 53.8416 67.5743 54.6412 66.7755Z" fill="#BCE4FF"/>
<path d="M77.5287 70.1443L96.6065 51.0961C97.4065 50.2973 98.7035 50.2973 99.5035 51.0961C100.303 51.8949 100.303 53.1899 99.5035 53.9883L80.4254 73.0368C79.6257 73.8353 78.3288 73.8353 77.5287 73.0368C76.7287 72.238 76.7287 70.9431 77.5287 70.1443Z" fill="#BCE4FF"/>
<path d="M56.9382 86.4229C60.138 86.4229 62.7319 89.0128 62.7319 92.2076V97.9923C62.7319 101.187 60.138 103.777 56.9382 103.777C53.7384 103.777 51.1445 101.187 51.1445 97.9923V92.2076C51.1445 89.0128 53.7384 86.4229 56.9382 86.4229Z" fill="#FF3378"/>
<path d="M74.3195 92.2076C77.5193 92.2076 80.1132 94.7974 80.1132 97.9923C80.1132 101.187 77.5193 103.777 74.3195 103.777C71.1197 103.777 68.5259 101.187 68.5259 97.9923C68.5259 94.7974 71.1197 92.2076 74.3195 92.2076Z" fill="#FF3378"/>
<path d="M91.7004 83.5308C94.9002 83.5308 97.4941 86.1206 97.4941 89.3154V97.9923C97.4941 101.187 94.9002 103.777 91.7004 103.777C88.5006 103.777 85.9067 101.187 85.9067 97.9923V89.3154C85.9067 86.1206 88.5006 83.5308 91.7004 83.5308Z" fill="#FF3378"/>
<path d="M109.081 66.1767C112.281 66.1767 114.875 68.7666 114.875 71.9614V97.9923C114.875 101.187 112.281 103.777 109.081 103.777C105.881 103.777 103.288 101.187 103.288 97.9923V71.9614C103.288 68.7666 105.881 66.1767 109.081 66.1767Z" fill="#FF3378"/>
<path d="M103.288 43.038H109.081C110.682 43.038 111.978 44.3329 111.978 45.9302C111.978 47.5278 110.682 48.8227 109.081 48.8227H103.288C101.688 48.8227 100.391 47.5278 100.391 45.9302C100.391 44.3329 101.688 43.038 103.288 43.038Z" fill="#BCE4FF"/>
<path opacity="0.24" d="M59.8351 89.3155C61.4348 89.3155 62.7321 90.6104 62.7321 92.2076V97.9923C62.7321 99.5899 61.4352 100.885 59.8351 100.885C58.2354 100.885 56.9385 99.5899 56.9385 97.9923V92.2076C56.9381 90.6104 58.235 89.3155 59.8351 89.3155Z" fill="white"/>
<path opacity="0.24" d="M94.5973 86.4229C96.197 86.4229 97.4939 87.7178 97.4939 89.3154V97.9923C97.4939 99.5899 96.197 100.885 94.5973 100.885C92.9976 100.885 91.7007 99.5899 91.7007 97.9923V89.3154C91.7003 87.7178 92.9972 86.4229 94.5973 86.4229Z" fill="white"/>
<path opacity="0.24" d="M111.978 69.0688C113.578 69.0688 114.875 70.3638 114.875 71.9614V97.9922C114.875 99.5898 113.578 100.885 111.978 100.885C110.378 100.885 109.082 99.5898 109.082 97.9922V71.9614C109.081 70.3638 110.378 69.0688 111.978 69.0688Z" fill="white"/>
<path opacity="0.24" d="M80.113 97.9922C80.113 99.5899 78.8161 100.885 77.2164 100.885C75.6163 100.885 74.3193 99.5899 74.3193 97.9922C74.3193 96.395 75.6163 95.1001 77.2164 95.1001C78.8161 95.1001 80.113 96.395 80.113 97.9922Z" fill="white"/>
<path opacity="0.12" d="M56.9386 92.2076C56.9386 93.8052 55.6413 95.1001 54.0416 95.1001C52.4415 95.1001 51.1445 93.8052 51.1445 92.2076C51.1445 90.6104 52.4415 89.3155 54.0416 89.3155C55.6413 89.3155 56.9386 90.6104 56.9386 92.2076Z" fill="white"/>
<path opacity="0.12" d="M91.7004 89.3154C91.7004 90.9127 90.4035 92.2076 88.8038 92.2076C87.2037 92.2076 85.9067 90.9127 85.9067 89.3154C85.9067 87.7178 87.2037 86.4229 88.8038 86.4229C90.4035 86.4229 91.7004 87.7178 91.7004 89.3154Z" fill="white"/>
<path opacity="0.12" d="M74.3199 95.1001C74.3199 96.6973 73.0226 97.9922 71.4229 97.9922C69.8228 97.9922 68.5259 96.6973 68.5259 95.1001C68.5259 93.5025 69.8228 92.2076 71.4229 92.2076C73.0226 92.2076 74.3199 93.5025 74.3199 95.1001Z" fill="white"/>
<path opacity="0.12" d="M109.081 71.9614C109.081 73.5586 107.784 74.8535 106.185 74.8535C104.585 74.8535 103.288 73.5586 103.288 71.9614C103.288 70.3638 104.585 69.0688 106.185 69.0688C107.784 69.0688 109.081 70.3638 109.081 71.9614Z" fill="white"/>
<path d="M59.8354 52.9129V59.194C59.8354 61.453 61.6695 63.2842 63.9323 63.2842C65.0185 63.2842 66.0606 62.8533 66.829 62.0862L73.1195 55.8054C73.8879 55.0382 74.3194 53.9977 74.3194 52.9132C74.3194 50.6539 72.4854 48.8227 70.2229 48.8227H63.932C61.6695 48.8227 59.8354 50.6539 59.8354 52.9129Z" fill="#163969"/>
</g>
<defs>
<filter id="filter0_d_0:5" x="0" y="0" width="166" height="166" filterUnits="userSpaceOnUse" color-interpolation-filters="sRGB">
<feFlood flood-opacity="0" result="BackgroundImageFix"/>
<feColorMatrix in="SourceAlpha" type="matrix" values="0 0 0 0 0 0 0 0 0 0 0 0 0 0 0 0 0 0 127 0" result="hardAlpha"/>
<feOffset dy="11"/>
<feGaussianBlur stdDeviation="11.5"/>
<feColorMatrix type="matrix" values="0 0 0 0 0 0 0 0 0 0 0 0 0 0 0 0 0 0 0.1 0"/>
<feBlend mode="normal" in2="BackgroundImageFix" result="effect1_dropShadow_0:5"/>
<feBlend mode="normal" in="SourceGraphic" in2="effect1_dropShadow_0:5" result="shape"/>
</filter>
</defs>
</svg>
