<svg width="203" height="280" viewBox="0 0 203 280" fill="none" xmlns="http://www.w3.org/2000/svg">
<path opacity="0.5" fill-rule="evenodd" clip-rule="evenodd" d="M174.815 273.803C175.145 264.601 136.908 248.499 89.4128 237.839C41.9177 227.177 3.14884 225.995 2.81875 235.197C2.49012 244.4 40.7253 260.502 88.2204 271.162C135.716 281.822 174.484 283.006 174.815 273.803Z" fill="#CEE5ED"/>
<path fill-rule="evenodd" clip-rule="evenodd" d="M130.557 172.638C123.225 169.669 117.261 160.654 117.261 152.542V14.8931C117.261 6.78134 123.225 2.59677 130.557 5.56581L184.38 27.3611C191.711 30.3301 197.676 39.3463 197.676 47.4581L197.675 185.106C197.675 193.217 191.711 197.402 184.38 194.433L130.557 172.638Z" fill="#17161C"/>
<path fill-rule="evenodd" clip-rule="evenodd" d="M131.296 177.044C123.557 173.918 117.261 164.426 117.261 155.884V10.9485C117.261 2.40598 123.557 -1.99889 131.296 1.12795L188.109 24.0774C195.847 27.2028 202.144 36.6951 202.144 45.2376V190.173C202.144 198.714 195.847 203.12 188.109 199.993L131.296 177.044Z" fill="#1E394C"/>
<path fill-rule="evenodd" clip-rule="evenodd" d="M129.98 167.444C125.43 165.608 121.728 160.032 121.728 155.012V17.7049C121.728 12.6866 125.43 10.0976 129.98 11.9353L183.84 33.6766C188.391 35.5128 192.092 41.0895 192.092 46.1093V183.416C192.092 188.434 188.389 191.023 183.84 189.186L129.98 167.444Z" fill="#FF3378"/>
<path fill-rule="evenodd" clip-rule="evenodd" d="M183.868 32.6337L130.189 10.8128C126.978 9.5085 124.2 10.4358 122.845 12.8726C124.29 12.0647 126.17 11.9774 128.231 12.8144L181.91 34.6352C186.445 36.4796 190.134 42.0767 190.134 47.1134V184.923C190.134 186.394 189.813 187.649 189.253 188.655C190.989 187.684 192.092 185.669 192.092 182.921V45.1119C192.092 40.0752 188.403 34.478 183.868 32.6337Z" fill="#34648C"/>
<path fill-rule="evenodd" clip-rule="evenodd" d="M177.573 29.0261L137.365 12.4661L139.153 17.8866C139.964 20.3488 141.824 22.4948 143.882 23.3413L171.056 34.5343C173.113 35.3823 174.973 34.7689 175.785 32.975L177.573 29.0261Z" fill="#1E394C"/>
<path fill-rule="evenodd" clip-rule="evenodd" d="M180.577 50.7928L131.011 30.7682C128.351 29.6936 126.196 31.2015 126.196 34.1371V58.9018C126.196 61.8375 128.351 65.0872 131.011 66.1603L180.577 86.1864C183.235 87.2609 185.391 85.7516 185.391 82.8174V58.0527C185.391 55.117 183.235 51.8673 180.577 50.7928Z" fill="white"/>
<path fill-rule="evenodd" clip-rule="evenodd" d="M180.577 94.5595L131.011 74.5348C128.351 73.4603 126.196 74.9681 126.196 77.9038V102.669C126.196 105.604 128.351 108.854 131.011 109.927L180.577 129.953C183.235 131.028 185.391 129.518 185.391 126.584V101.819C185.391 98.8837 183.235 95.634 180.577 94.5595Z" fill="white"/>
<path fill-rule="evenodd" clip-rule="evenodd" d="M180.577 138.326L131.011 118.301C128.351 117.227 126.196 118.735 126.196 121.67V146.435C126.196 149.371 128.351 152.621 131.011 153.695L180.577 173.72C183.235 174.794 185.391 173.285 185.391 170.351V145.586C185.391 142.65 183.235 139.401 180.577 138.326Z" fill="white"/>
<path fill-rule="evenodd" clip-rule="evenodd" d="M165.367 56.1887L148.454 49.5707C147.884 49.3482 147.417 49.6639 147.417 50.2745C147.417 50.8837 147.884 51.5653 148.454 51.7878L165.367 58.4058C165.937 58.6284 166.404 58.3126 166.404 57.7034C166.404 57.0928 165.937 56.4113 165.367 56.1887Z" fill="#1E394C"/>
<path fill-rule="evenodd" clip-rule="evenodd" d="M165.367 68.5321L148.454 61.9158C147.884 61.6918 147.417 62.009 147.417 62.6181C147.417 63.2287 147.884 63.9089 148.454 64.1328L165.367 70.7505C165.937 70.973 166.404 70.6559 166.404 70.0467C166.404 69.4375 165.937 68.756 165.367 68.5321Z" fill="#1E394C"/>
<path fill-rule="evenodd" clip-rule="evenodd" d="M170.949 65.1402L142.873 54.061C142.3 53.8345 141.832 54.1552 141.832 54.7713C141.832 55.3887 142.3 56.0779 142.873 56.303L170.949 67.3822C171.52 67.6087 171.988 67.288 171.988 66.6719C171.988 66.0545 171.52 65.3667 170.949 65.1402Z" fill="#1E394C"/>
<path fill-rule="evenodd" clip-rule="evenodd" d="M165.367 102.2L148.454 95.5818C147.884 95.3593 147.417 95.675 147.417 96.2856C147.417 96.8948 147.884 97.5764 148.454 97.7989L165.367 104.417C165.937 104.639 166.404 104.324 166.404 103.715C166.404 103.104 165.937 102.422 165.367 102.2Z" fill="#1E394C"/>
<path fill-rule="evenodd" clip-rule="evenodd" d="M170.949 111.151L142.873 100.072C142.3 99.8456 141.832 100.166 141.832 100.782C141.832 101.4 142.3 102.089 142.873 102.314L170.949 113.393C171.52 113.62 171.988 113.299 171.988 112.683C171.988 112.066 171.52 111.378 170.949 111.151Z" fill="#1E394C"/>
<path fill-rule="evenodd" clip-rule="evenodd" d="M165.366 143.722L148.453 137.104C147.883 136.881 147.417 137.197 147.417 137.808C147.417 138.417 147.883 139.099 148.453 139.321L165.366 145.939C165.936 146.162 166.404 145.846 166.404 145.237C166.404 144.626 165.936 143.945 165.366 143.722Z" fill="#1E394C"/>
<path fill-rule="evenodd" clip-rule="evenodd" d="M165.366 156.066L148.453 149.449C147.883 149.226 147.417 149.542 147.417 150.152C147.417 150.761 147.883 151.443 148.453 151.667L165.366 158.283C165.936 158.507 166.404 158.19 166.404 157.581C166.404 156.97 165.936 156.29 165.366 156.066Z" fill="#1E394C"/>
<path fill-rule="evenodd" clip-rule="evenodd" d="M170.949 152.674L142.873 141.594C142.3 141.368 141.832 141.689 141.832 142.305C141.832 142.921 142.3 143.611 142.873 143.836L170.949 154.916C171.52 155.142 171.988 154.821 171.988 154.205C171.988 153.588 171.52 152.9 170.949 152.674Z" fill="#1E394C"/>
<path fill-rule="evenodd" clip-rule="evenodd" d="M116.817 250.408C116.817 250.408 114.048 249.37 113.692 243H105.598L104.817 251.741L110.853 257L116.106 254.26L116.817 250.408Z" fill="#F2BF75"/>
<path fill-rule="evenodd" clip-rule="evenodd" d="M117.765 251C117.765 251 135.948 257.84 135.816 259.878C135.608 263.107 120.317 261.66 116.254 261.771L114.362 259.551L113.104 261.771H104.817C104.817 260.546 104.891 252.868 105.261 252.344C105.261 252.344 115.101 255.631 117.765 251Z" fill="#1E394C"/>
<path fill-rule="evenodd" clip-rule="evenodd" d="M85.8167 250.805C85.8167 250.805 83.1058 249.656 83.0329 243.38L74.9773 243L73.8167 251.55L79.5917 257L84.9406 254.555L85.8167 250.805Z" fill="#F2BF75"/>
<path fill-rule="evenodd" clip-rule="evenodd" d="M86.1526 251C86.1526 251 101.874 256.464 102.778 258.974C103.683 261.485 88.4531 260.953 84.3955 260.953L82.3866 258.918L80.9946 260.953L72.8167 260.591C72.8167 260.591 73.3627 252.198 73.7524 251.721C73.7524 251.721 83.3165 255.251 86.1526 251Z" fill="#1E394C"/>
<path fill-rule="evenodd" clip-rule="evenodd" d="M67.8167 152C67.8167 152 73.251 173.949 74.5739 177.608C75.8954 181.266 78.6867 199.117 78.8337 199.703C78.9807 200.289 73.7869 246.236 73.7869 246.236C73.7869 246.236 80.0616 248.137 83.4395 245.942L93.8167 199.557V153.902L67.8167 152Z" fill="#1E394C"/>
<path fill-rule="evenodd" clip-rule="evenodd" d="M66.8167 152.309C69.751 158.873 75.111 166.573 82.5316 172.936C89.9536 179.301 101.397 195.374 101.397 195.374L104.712 246.284C108.273 248.459 109.376 248.574 113.044 246.585L113.601 246.284C113.601 246.284 116.022 193.399 115.803 189.889C115.585 186.377 97.0312 146 97.0312 146L66.8167 152.309Z" fill="#1E394C"/>
<path fill-rule="evenodd" clip-rule="evenodd" d="M101.353 57.6545C101.353 57.6545 94.827 80.6525 84.3533 79.9858C75.1777 79.403 73.471 69.9062 75.6892 58.2011C77.9914 46.0506 88.0449 47.6559 93.8954 47.5835C93.8954 47.5835 101.134 47.5835 102.339 42C102.339 42 110.785 53.4954 101.353 57.6545Z" fill="#1E394C"/>
<path fill-rule="evenodd" clip-rule="evenodd" d="M84.4647 86.0455C84.4647 86.0455 71.9269 83.8004 66.1254 110.839C63.6898 122.191 76.4637 140 76.4637 140L89.8167 114.032L84.4647 86.0455Z" fill="#AAC6CE"/>
<path fill-rule="evenodd" clip-rule="evenodd" d="M138.817 69.7753C138.817 69.7753 143.449 56.3166 143.449 52.6459C143.449 48.9752 146.08 52.2006 145.974 54.9823C145.87 57.7625 145.239 60.8763 145.239 60.8763C145.239 60.8763 148.817 61.2098 148.817 62.9893C148.817 64.7703 147.658 70.9993 145.974 72L138.817 69.7753Z" fill="#F2BF75"/>
<path fill-rule="evenodd" clip-rule="evenodd" d="M91.8989 87.3084C100.372 91.6659 118.528 103.083 122.694 99.3577C126.857 95.6341 138.364 70 138.364 70L145.817 72.191C145.817 72.191 129.889 114.914 125.176 114.805C120.464 114.695 104.429 111.591 104.429 111.591C104.429 111.591 102.967 141.753 98.5831 150.079C98.5831 150.079 76.9946 157.858 65.8167 151.503C65.8167 151.503 75.0199 139.682 72.6108 122.254C70.0903 104.013 74.9677 78.5992 91.8989 87.3084Z" fill="#CEE5ED"/>
<path fill-rule="evenodd" clip-rule="evenodd" d="M101.956 57C101.956 57 102.73 61.0138 103.947 62.8566C105.162 64.7023 107.817 66.5451 107.817 66.5451L105.716 69.1489C105.716 69.1489 107.263 78.2598 97.4217 79.9966L96.4269 89L85.2593 85.3115L84.8167 79.1282C84.8167 79.1282 86.6412 77.2309 86.7522 75.2233C86.7522 75.2233 84.5406 73.1082 85.2593 70.6134C85.978 68.1185 88.2451 66.2198 89.2954 67.1427C90.3457 68.0641 90.4553 69.9083 90.4553 69.9083H91.8941C91.8941 69.9083 91.6414 65.7785 92.5018 64.0503C93.6631 61.7188 96.649 58.1937 101.956 57Z" fill="#F2BF75"/>
<path fill-rule="evenodd" clip-rule="evenodd" d="M95.8246 89L96.7847 79.9966C106.282 78.2612 104.788 69.1489 104.788 69.1489L106.817 66.5465C106.817 66.5465 104.255 64.7023 103.081 62.858C101.906 61.0138 101.161 57 101.161 57C100.728 57.1017 100.335 57.2393 99.9341 57.3711C100.612 59.2698 101.578 62.3966 101.801 65.3471C102.153 70.0043 101.428 75.2677 95.0154 79.2285C92.8416 80.5726 92.0549 84.2196 91.8167 87.6286L95.8246 89Z" fill="#FFD291"/>
<path fill-rule="evenodd" clip-rule="evenodd" d="M90.3938 179.626C84.2013 178.426 78.1555 174.532 73.428 170.652C71.5234 164.285 69.0401 155.565 68.3391 153.111C69.0551 153.367 69.3006 154.349 70.0599 154.494C72.6785 158.689 78.2411 167.134 83.1243 171.401C85.2161 173.238 87.5225 176.111 89.7124 179.178L90.3938 179.626Z" fill="#0F2A3F"/>
<path opacity="0.04" fill-rule="evenodd" clip-rule="evenodd" d="M195.622 241.479C195.963 238.004 182.697 230.315 165.993 224.307C149.288 218.296 135.472 216.241 135.131 219.716C134.79 223.19 148.055 230.879 164.76 236.888C181.464 242.898 195.281 244.953 195.622 241.479Z" fill="black"/>
<path fill-rule="evenodd" clip-rule="evenodd" d="M32.1724 174C32.1724 174 37.243 128.677 18.9339 135.749C0.0715294 143.035 23.7222 172.991 32.1724 174Z" fill="#198B20"/>
<path fill-rule="evenodd" clip-rule="evenodd" d="M26.8167 201C26.8167 201 21.276 155.64 5.20331 168.197C-9.34721 179.565 16.0629 197.644 26.8167 201Z" fill="#0DCC18"/>
<path fill-rule="evenodd" clip-rule="evenodd" d="M15.9156 183.781C23.3033 194.18 30.4881 204.748 32.781 217.611C32.9018 218.293 33.9288 218.004 33.8066 217.322C31.4993 204.381 24.2814 193.719 16.8347 183.235C16.4377 182.677 15.5143 183.216 15.9156 183.781Z" fill="#1E394C"/>
<path fill-rule="evenodd" clip-rule="evenodd" d="M41.141 164C41.141 164 34.3412 131.21 51.5578 134.192C68.7729 137.172 45.4808 162.439 41.141 164Z" fill="#0DCC18"/>
<path fill-rule="evenodd" clip-rule="evenodd" d="M43.2584 195.991C42.4015 196.571 41.5606 168.022 53.4468 169.026C65.3344 170.03 59.8161 184.804 43.2584 195.991Z" fill="#198B20"/>
<path fill-rule="evenodd" clip-rule="evenodd" d="M38.019 193.485C36.752 176.807 43.4873 158.017 49.7701 142.823C50.0295 142.195 49.1317 141.648 48.8696 142.282C42.4824 157.726 35.6837 176.466 36.9761 193.485C37.0268 194.169 38.0712 194.175 38.019 193.485Z" fill="#1E394C"/>
<path fill-rule="evenodd" clip-rule="evenodd" d="M39.816 214.483C38.9288 194.924 37.1529 175.065 25.8626 158.247C25.4758 157.671 24.5184 158.207 24.9082 158.789C36.1029 175.466 37.8295 195.095 38.7107 214.483C38.7421 215.171 39.8474 215.174 39.816 214.483Z" fill="#1E394C"/>
<path fill-rule="evenodd" clip-rule="evenodd" d="M41.8969 214.479C42.3418 204.123 43.0304 193.782 48.7302 184.796C49.1037 184.208 48.1685 183.666 47.798 184.252C42.015 193.368 41.2681 203.96 40.8173 214.479C40.7867 215.174 41.8662 215.173 41.8969 214.479Z" fill="#1E394C"/>
<path fill-rule="evenodd" clip-rule="evenodd" d="M22.8308 211.545L25.6125 236.517C25.96 239.637 28.6216 242 31.7899 242H47.8446C51.0129 242 53.673 239.637 54.022 236.517L56.8023 211.545C56.9543 210.187 55.8813 209 54.5028 209H25.1303C23.7518 209 22.6802 210.187 22.8308 211.545Z" fill="#CEE5ED"/>
<path fill-rule="evenodd" clip-rule="evenodd" d="M54.5216 209H44.4205C45.7878 209 46.8521 210.187 46.7027 211.545L43.9437 236.517C43.599 239.638 40.9592 242 37.8167 242H47.9178C51.0603 242 53.6987 239.638 54.0434 236.517L56.8024 211.545C56.9532 210.187 55.8889 209 54.5216 209Z" fill="#AAC6CE"/>
<path fill-rule="evenodd" clip-rule="evenodd" d="M25.8047 169.593C28.2209 171.544 30.4849 172.81 32.1606 173C32.1606 173 37.2988 129.121 18.8167 135.665C23.7544 141.712 34.2958 157.098 25.8047 169.593Z" fill="black" fill-opacity="0.24"/>
<path fill-rule="evenodd" clip-rule="evenodd" d="M54.4725 169C54.8787 174.706 54.8225 189.784 42.8836 188.879C42.6834 193.065 42.9686 196.188 43.2567 195.991C59.3178 185.078 64.9927 170.773 54.4725 169Z" fill="black" fill-opacity="0.24"/>
<path fill-rule="evenodd" clip-rule="evenodd" d="M52.3372 134C52.7205 139.887 52.631 156.218 39.8167 155.561C40.1939 160.337 40.95 164 40.95 164C45.2702 162.446 68.1028 137.719 52.3372 134Z" fill="black" fill-opacity="0.24"/>
<path fill-rule="evenodd" clip-rule="evenodd" d="M26.8167 201C26.8167 201 21.2738 155.64 5.19342 168.197C4.6825 168.597 4.23168 169.007 3.81665 169.421C8.83998 171.2 25.4027 178.644 19.9958 197.93C22.5261 199.336 24.9046 200.404 26.8167 201Z" fill="black" fill-opacity="0.24"/>
</svg>
