<svg width="226" height="259" viewBox="0 0 226 259" fill="none" xmlns="http://www.w3.org/2000/svg">
<path opacity="0.12" fill-rule="evenodd" clip-rule="evenodd" d="M141.753 168.787C95.2491 168.787 57.55 131.002 57.55 84.3933C57.55 37.7841 95.2491 0 141.753 0C188.257 0 225.957 37.7841 225.957 84.3933C225.957 131.002 188.257 168.787 141.753 168.787Z" fill="#FF3378"/>
<path opacity="0.488049" fill-rule="evenodd" clip-rule="evenodd" d="M8.82169 252.435C8.82169 249.614 51.6587 247.325 104.499 247.325C157.342 247.325 200.177 249.614 200.177 252.435C200.177 255.257 157.342 257.546 104.499 257.546C51.6587 257.546 8.82169 255.257 8.82169 252.435Z" fill="#CEE5ED"/>
<path fill-rule="evenodd" clip-rule="evenodd" d="M118.719 232.207L117.957 237.138L121.551 242L130.891 237.462L131.957 232.957L120.431 231L118.719 232.207Z" fill="#F2BF75"/>
<path fill-rule="evenodd" clip-rule="evenodd" d="M126.875 247.995L127.851 246.817C128.03 246.602 128.361 246.602 128.539 246.817L129.488 247.963C129.871 248.425 130.441 248.691 131.043 248.691L152.642 248.618C153.059 248.202 153.178 247.48 152.702 246.984C149.58 243.741 132.622 237.978 131.78 237.501C130.938 237.022 125.673 241.005 118.823 237.182C118.823 237.182 117.631 242.581 117.422 246.087C117.336 247.519 118.447 248.733 119.88 248.727L125.361 248.708C125.946 248.707 126.501 248.447 126.875 247.995Z" fill="#1E394C"/>
<path fill-rule="evenodd" clip-rule="evenodd" d="M84.9748 232.565L84.2125 237.379L87.8134 242.124L97.1699 237.695L98.2356 233.298L86.691 231.387L84.9748 232.565Z" fill="#F2BF75"/>
<path fill-rule="evenodd" clip-rule="evenodd" d="M92.2644 248.189L93.2415 247.011C93.4201 246.796 93.7497 246.796 93.9283 247.013L94.8779 248.159C95.2598 248.621 95.8304 248.887 96.4315 248.886L118.031 248.813C118.449 248.397 118.567 247.674 118.091 247.178C114.969 243.936 98.0113 238.172 97.1691 237.695C96.327 237.217 91.0636 241.2 84.2117 237.378C84.2117 237.378 83.0197 242.776 82.8106 246.281C82.7249 247.714 83.8357 248.928 85.2688 248.923L90.75 248.904C91.3351 248.902 91.8898 248.641 92.2644 248.189Z" fill="#1E394C"/>
<path fill-rule="evenodd" clip-rule="evenodd" d="M134.783 76.7395L141.358 101.872L159.253 89.9115L167.349 96.3485L143.984 118.251L127.181 102.639L134.783 76.7395Z" fill="#CEE5ED"/>
<path fill-rule="evenodd" clip-rule="evenodd" d="M159.28 89.9181L164.487 79.6265C165.056 78.5287 166.43 78.1347 167.493 78.7643C170.381 80.4786 171.872 83.8446 171.167 87.1307C170.46 90.4183 169.268 94.3049 167.35 96.3493L159.28 89.9181Z" fill="#F2BF75"/>
<path fill-rule="evenodd" clip-rule="evenodd" d="M165.717 70.0529L171.428 69.5876C172.255 69.5193 172.785 70.0529 172.604 70.7727L168.554 86.8396C168.373 87.5594 167.547 88.2035 166.717 88.2704L161.007 88.7372C159.677 88.8448 158.91 91.2061 159.831 87.5507L163.88 71.4837C164.062 70.7654 164.888 70.1213 165.717 70.0529Z" fill="#1E394C"/>
<path fill-rule="evenodd" clip-rule="evenodd" d="M159.257 89.96L158.061 86.1432C157.555 85.1733 157.85 83.9781 158.747 83.3544L160.731 81.9745C161.323 81.563 162.13 81.6633 162.604 82.2071C163.14 82.8207 163.048 83.76 162.405 84.2602L161.492 84.9683L160.559 85.6735L162.771 89.0163L159.257 89.96Z" fill="#F2BF75"/>
<path fill-rule="evenodd" clip-rule="evenodd" d="M85.0317 233.686C85.0317 228.07 90.334 134.598 90.334 134.598C90.334 134.598 103.489 121.775 110.647 123.133C117.805 121.775 134.08 131.281 134.08 131.281C134.08 131.281 132.529 228.07 132.529 233.686H119.449C119.449 233.686 116.918 191.54 110.875 159.355C110.605 157.917 110.83 157.775 110.56 159.214C104.516 191.397 98.1133 233.686 98.1133 233.686H85.0317Z" fill="#1E394C"/>
<path fill-rule="evenodd" clip-rule="evenodd" d="M110.35 61.5553C110.35 61.5553 92.048 66.0395 89.5158 68.965C86.985 71.8891 77.4688 90.1211 77.6401 96.2629C77.8391 103.453 90.1474 118.802 89.9064 117.905V139.562C89.9064 139.562 117.942 148.337 134.883 137.613C134.883 137.613 136.824 81.9887 134.493 75.7888C133.776 73.884 124.563 65.8447 121.838 64.8705C119.111 63.8948 110.35 61.5553 110.35 61.5553Z" fill="#CEE5ED"/>
<path fill-rule="evenodd" clip-rule="evenodd" d="M77.641 96.2623C77.8167 102.673 87.6291 115.578 89.5747 117.654C89.5805 117.66 89.5805 117.66 89.5878 117.666C89.7968 117.823 89.9072 117.906 89.9072 117.906L96.0882 123.463L103.535 116.735C103.535 116.735 89.8085 106.938 91.7076 94.3605C93.0434 85.5113 102.221 69.6478 102.221 69.6478C105.375 67.8637 108.465 64.6227 110.855 61.6914C110.532 61.6041 110.352 61.5576 110.352 61.5576C110.352 61.5576 92.0459 66.0375 89.5166 68.963C86.9873 71.887 77.4725 90.1205 77.641 96.2623Z" fill="#CEE5ED"/>
<path fill-rule="evenodd" clip-rule="evenodd" d="M140.588 91.5495C144.239 91.5495 147.198 94.5128 147.198 98.1682V132.963C147.198 136.62 144.239 139.583 140.588 139.583H80.209C76.5573 139.583 73.5982 136.62 73.5982 132.963V98.1682C73.5982 94.5128 76.5573 91.5495 80.209 91.5495H140.588Z" fill="#FF3378"/>
<path opacity="0.24" fill-rule="evenodd" clip-rule="evenodd" d="M88.0205 91.5495C84.3703 91.5495 81.4111 94.5128 81.4111 98.1682V132.963C81.4111 136.62 84.3703 139.583 88.0205 139.583H80.2089C76.5572 139.583 73.5981 136.62 73.5981 132.963V98.1682C73.5981 94.5128 76.5572 91.5495 80.2089 91.5495H88.0205Z" fill="black"/>
<path fill-rule="evenodd" clip-rule="evenodd" d="M147.199 108.988H73.5999V99.5175H147.199V108.988Z" fill="#1E394C"/>
<path fill-rule="evenodd" clip-rule="evenodd" d="M140.209 122.584H125.715V120.578H140.209V122.584Z" fill="#1E394C"/>
<path fill-rule="evenodd" clip-rule="evenodd" d="M140.208 127.063H133.2V125.056H140.208V127.063Z" fill="#1E394C"/>
<path fill-rule="evenodd" clip-rule="evenodd" d="M109.377 51.3679V64.3829C109.377 64.3829 113.612 77.3979 123.395 67.1616L124.271 56.7784L109.377 51.3679Z" fill="#EA9249"/>
<path fill-rule="evenodd" clip-rule="evenodd" d="M134.786 41.1797C134.786 41.1797 151.335 37.6697 141.113 23.5336C141.113 23.5336 139.361 31.0408 130.405 24.6067C125.84 21.3279 119.069 20.5064 111.518 24.6067C103.438 28.9935 100.615 42.4476 107.528 49.4662L121.059 46.737L134.786 41.1797Z" fill="#1E394C"/>
<path fill-rule="evenodd" clip-rule="evenodd" d="M134.785 41.1797C134.785 41.1797 136.733 63.6997 121.838 62.2384C110.204 61.0955 110.642 52.2943 110.642 52.2943C110.642 52.2943 106.845 51.5135 106.651 48.1023C106.456 44.6897 107.528 41.8617 110.934 44.1052C110.934 44.1052 116.97 40.2055 117.36 37.4749C117.36 37.4749 124.466 41.3746 134.785 41.1797Z" fill="#F2BF75"/>
<path fill-rule="evenodd" clip-rule="evenodd" d="M115.152 137.953C115.903 138.881 115.641 140.361 114.541 141.254L112.016 143.303C110.917 144.194 109.417 144.143 108.666 143.216L100.737 133.331L108.32 127.49L116.566 133.322C117.143 133.737 117.14 134.615 116.541 134.996C116.19 135.22 115.736 135.367 115.175 135.28C113.619 135.035 112.987 134.16 112.987 134.16L115.152 137.953Z" fill="#F6BA8E"/>
<path fill-rule="evenodd" clip-rule="evenodd" d="M109.754 127.585L100.9 134.721C100.9 134.721 76.8479 108.075 76.7492 97.8894C76.694 92.1605 83.6417 78.3661 87.9947 70.9244H103.582C103.582 70.9244 92.461 87.6865 89.1055 95.7272C88.4681 97.2554 88.6568 98.9988 89.5933 100.364C93.653 106.292 105.648 123.631 109.754 127.585Z" fill="#CEE5ED"/>
<path fill-rule="evenodd" clip-rule="evenodd" d="M87.9949 70.9241C87.9949 70.9241 79.1118 92.9817 79.1539 97.4063C79.2395 106.177 98.4578 127.035 103.415 132.694L100.9 134.721C100.9 134.721 76.8481 108.075 76.7494 97.8891C76.6942 92.1602 83.6419 78.3658 87.9949 70.9241Z" fill="#B4CCD3"/>
<path fill-rule="evenodd" clip-rule="evenodd" d="M91.408 91.3699L91.8988 91.5444H132.078L132.626 91.3699L94.8564 90.4001C94.8564 90.4001 99.7612 76.7657 98.9916 77.151C98.209 77.5494 91.408 91.3699 91.408 91.3699Z" fill="#B4CCD3"/>
<path fill-rule="evenodd" clip-rule="evenodd" d="M128.239 58.9539C129.827 57.273 130.054 54.2734 130.054 54.2734C130.054 54.2734 131.824 54.2734 132.05 54.0465C132.277 53.8197 131.506 47.595 131.642 46.5031C131.738 45.7353 132.142 42.7328 132.368 41.097C133.383 41.1581 133.694 41.2002 134.786 41.1799C134.786 41.1799 136.733 63.6998 121.837 62.2385C125.464 62.2952 126.65 60.6347 128.239 58.9539Z" fill="#EA9249"/>
<path fill-rule="evenodd" clip-rule="evenodd" d="M10.5613 186.228C5.98471 181.372 4.85072 174.996 8.03344 171.989C11.2132 168.982 17.5046 170.481 22.0827 175.339C26.6607 180.197 29.9204 188.829 26.7391 191.836C23.5579 194.843 15.1394 191.086 10.5613 186.228Z" fill="#198B20"/>
<path fill-rule="evenodd" clip-rule="evenodd" d="M8.03304 171.989C9.02038 171.055 10.3068 170.558 11.7501 170.459C11.5976 170.574 11.4452 170.686 11.3043 170.818C8.12306 173.825 9.2556 180.201 13.8337 185.058C17.2777 188.712 22.8939 191.742 26.8186 191.739C26.791 191.769 26.7692 191.807 26.7387 191.836C23.5575 194.843 15.1404 191.086 10.5609 186.228C5.98431 181.372 4.85178 174.996 8.03304 171.989Z" fill="black" fill-opacity="0.24"/>
<path fill-rule="evenodd" clip-rule="evenodd" d="M33.8367 167.528C33.2239 160.976 36.0001 155.358 40.038 154.98C44.0745 154.6 47.8424 159.607 48.4536 166.158C49.0664 172.71 46.5748 181.375 42.5383 181.753C38.5018 182.131 34.4479 174.08 33.8367 167.528Z" fill="#0DCC18"/>
<path fill-rule="evenodd" clip-rule="evenodd" d="M40.0375 154.979C40.791 154.91 41.5344 155.026 42.2488 155.307C38.9383 156.634 36.8039 161.707 37.3484 167.528C37.8552 172.954 40.7242 179.392 43.9868 181.236C43.5294 181.526 43.0459 181.704 42.5392 181.752C38.5013 182.13 34.4474 174.081 33.8361 167.528C33.2248 160.976 36.001 155.357 40.0375 154.979Z" fill="black" fill-opacity="0.24"/>
<path fill-rule="evenodd" clip-rule="evenodd" d="M53.4865 162.494C56.2874 156.976 61.3126 153.904 64.7102 155.634C68.1108 157.363 68.5986 163.239 65.7978 168.758C62.9998 174.276 56.6722 179.912 53.2745 178.183C49.874 176.453 50.6871 168.012 53.4865 162.494Z" fill="#198B20"/>
<path fill-rule="evenodd" clip-rule="evenodd" d="M53.4866 162.494C56.2874 156.976 61.3127 153.904 64.7103 155.634C66.0127 156.296 66.8839 157.568 67.3108 159.192C67.0001 158.896 66.656 158.638 66.2697 158.442C62.8692 156.712 57.844 159.784 55.0446 165.302C53.0801 169.177 52.1 174.483 52.8623 177.904C49.9583 175.707 50.8092 167.773 53.4866 162.494Z" fill="black" fill-opacity="0.24"/>
<path fill-rule="evenodd" clip-rule="evenodd" d="M58.8945 185.558C64.2901 183.137 69.7974 183.711 71.1971 186.837C72.5953 189.965 69.3545 194.462 63.9576 196.882C58.562 199.301 50.5472 199.854 49.1489 196.726C47.7492 193.6 53.4976 187.979 58.8945 185.558Z" fill="#0DCC18"/>
<path fill-rule="evenodd" clip-rule="evenodd" d="M58.8946 185.558C64.2901 183.137 69.7974 183.71 71.1971 186.837C71.5223 187.567 71.5862 188.374 71.4396 189.21C69.9484 186.196 64.5267 185.667 59.2053 188.054C54.8639 190.001 50.2989 194.02 49.4103 197.146C49.3116 197.013 49.2157 196.877 49.149 196.726C47.7493 193.599 53.4976 187.979 58.8946 185.558Z" fill="black" fill-opacity="0.24"/>
<path fill-rule="evenodd" clip-rule="evenodd" d="M9.08252 204.629C3.69571 202.708 0.348928 198.282 1.60778 194.745C2.86664 191.206 8.25344 189.896 13.6402 191.816C19.0285 193.738 24.8785 199.057 23.6196 202.595C22.3622 206.133 14.4693 206.55 9.08252 204.629Z" fill="#198B20"/>
<path fill-rule="evenodd" clip-rule="evenodd" d="M1.60712 194.744C2.14725 193.228 3.44967 192.123 5.18187 191.503C4.55026 192.056 4.0653 192.719 3.78943 193.497C2.53057 197.034 5.87591 201.46 11.2627 203.381C14.9071 204.681 19.6914 204.906 22.8 203.823C20.3317 206.199 13.7645 206.299 9.08185 204.629C3.69505 202.708 0.349716 198.282 1.60712 194.744Z" fill="black" fill-opacity="0.24"/>
<path fill-rule="evenodd" clip-rule="evenodd" d="M37.1052 224.074C35.8579 208.715 29.1498 194.765 17.9595 184.186C17.5225 183.771 18.1846 183.11 18.6216 183.524C29.9934 194.277 36.7727 208.465 38.0417 224.074C38.0896 224.675 37.1545 224.67 37.1052 224.074Z" fill="#1E394C"/>
<path fill-rule="evenodd" clip-rule="evenodd" d="M40.5067 221.889C40.1234 202.954 46.0605 184.791 57.5775 169.763C57.9376 169.292 58.7492 169.758 58.3848 170.236C46.9636 185.138 41.0614 203.106 41.4418 221.889C41.4534 222.491 40.5198 222.491 40.5067 221.889Z" fill="#1E394C"/>
<path fill-rule="evenodd" clip-rule="evenodd" d="M44.457 194.398C41.9088 186.267 41.2569 177.631 40.9447 169.157C40.9229 168.555 41.858 168.555 41.8798 169.157C42.189 177.556 42.8337 186.092 45.3587 194.149C45.5387 194.725 44.6371 194.971 44.457 194.398Z" fill="#1E394C"/>
<path fill-rule="evenodd" clip-rule="evenodd" d="M58.9824 192.831C54.4842 195.662 49.2368 197.823 44.2755 199.707C43.7121 199.919 43.4682 199.015 44.0272 198.803C48.9043 196.952 54.085 194.808 58.5106 192.022C59.0216 191.701 59.4921 192.511 58.9824 192.831Z" fill="#1E394C"/>
<path fill-rule="evenodd" clip-rule="evenodd" d="M19.1626 200.121C23.6652 202.003 28.2679 203.544 32.997 204.749C33.5792 204.897 33.3324 205.8 32.7472 205.652C28.0211 204.445 23.4169 202.905 18.9129 201.023C18.3669 200.794 18.6065 199.888 19.1626 200.121Z" fill="#1E394C"/>
<path fill-rule="evenodd" clip-rule="evenodd" d="M56.175 219.723L53.3349 245.473C52.9807 248.692 50.264 251.129 47.0305 251.129H30.6392C27.4057 251.129 24.6891 248.692 24.3333 245.473L21.4947 219.723C21.3408 218.322 22.4356 217.097 23.8426 217.097H53.8271C55.2356 217.097 56.3289 218.322 56.175 219.723Z" fill="#CEE5ED"/>
<path fill-rule="evenodd" clip-rule="evenodd" d="M23.8431 217.098H34.2392C32.8308 217.098 31.736 218.322 31.8899 219.724L34.73 245.473C35.0857 248.692 37.8009 251.128 41.0359 251.128H30.6398C27.4048 251.128 24.6896 248.692 24.3339 245.473L21.4953 219.724C21.3399 218.322 22.4347 217.098 23.8431 217.098Z" fill="#AAC6CE"/>
</svg>
