<svg width="248" height="226" viewBox="0 0 248 226" fill="none" xmlns="http://www.w3.org/2000/svg">
<path opacity="0.12" fill-rule="evenodd" clip-rule="evenodd" d="M165.66 149C206.529 149 239.66 115.645 239.66 74.5C239.66 33.3548 206.529 0 165.66 0C124.791 0 91.6604 33.3548 91.6604 74.5C91.6604 115.645 124.791 149 165.66 149Z" fill="#FF3378"/>
<path opacity="0.5" fill-rule="evenodd" clip-rule="evenodd" d="M245.099 220.068C245.099 217.399 190.379 215.234 122.88 215.234C55.3804 215.234 0.6604 217.399 0.6604 220.068C0.6604 222.736 55.3804 224.901 122.88 224.901C190.379 224.901 245.099 222.736 245.099 220.068Z" fill="#CEE5ED"/>
<path fill-rule="evenodd" clip-rule="evenodd" d="M243.143 155.865C247.166 151.583 248.162 145.961 245.365 143.31C242.57 140.658 237.04 141.98 233.016 146.263C228.992 150.547 226.127 158.158 228.923 160.809C231.72 163.46 239.119 160.148 243.143 155.865Z" fill="#198B20"/>
<path fill-rule="evenodd" clip-rule="evenodd" d="M242.098 141.961C242.232 142.062 242.366 142.161 242.489 142.278C245.286 144.929 244.29 150.551 240.266 154.833C237.239 158.054 232.303 160.726 228.853 160.723C228.877 160.75 228.896 160.784 228.923 160.809C231.719 163.46 239.118 160.148 243.143 155.865C247.166 151.583 248.161 145.961 245.365 143.31C244.497 142.487 243.366 142.048 242.098 141.961Z" fill="black" fill-opacity="0.24"/>
<path fill-rule="evenodd" clip-rule="evenodd" d="M223.574 131.897C220.06 132.492 218.004 137.613 218.98 143.332C219.955 149.051 224.048 155.864 227.561 155.267C231.074 154.671 232.679 146.892 231.703 141.173C230.728 135.454 227.089 131.3 223.574 131.897Z" fill="#0DCC18"/>
<path fill-rule="evenodd" clip-rule="evenodd" d="M221.787 132.615C224.9 132.992 227.87 136.827 228.736 141.908C229.544 146.645 228.577 152.781 226.228 155.094C226.683 155.236 227.134 155.278 227.575 155.204C231.09 154.607 232.695 146.83 231.718 141.109C230.742 135.39 227.103 131.237 223.589 131.833C222.934 131.945 222.329 132.213 221.787 132.615Z" fill="black" fill-opacity="0.24"/>
<path fill-rule="evenodd" clip-rule="evenodd" d="M225.577 144.302C225.458 143.784 224.664 143.997 224.783 144.514C226.437 151.737 227.837 159.154 227.532 166.59C227.511 167.122 228.332 167.126 228.355 166.597C228.663 159.092 227.245 151.59 225.577 144.302Z" fill="#1E394C"/>
<path fill-rule="evenodd" clip-rule="evenodd" d="M211.779 139.204C209.317 134.339 204.9 131.63 201.914 133.155C198.925 134.68 198.496 139.86 200.958 144.727C203.417 149.592 208.979 154.561 211.966 153.037C214.954 151.511 214.24 144.069 211.779 139.204Z" fill="#198B20"/>
<path fill-rule="evenodd" clip-rule="evenodd" d="M201.914 133.155C200.769 133.739 200.003 134.86 199.628 136.292C199.901 136.031 200.204 135.804 200.543 135.631C203.532 134.105 207.949 136.814 210.41 141.679C212.136 145.096 212.998 149.774 212.328 152.791C214.88 150.853 214.132 143.858 211.779 139.204C209.317 134.339 204.9 131.63 201.914 133.155Z" fill="black" fill-opacity="0.24"/>
<path fill-rule="evenodd" clip-rule="evenodd" d="M201.744 159.539C197.001 157.404 192.161 157.911 190.93 160.667C189.701 163.425 192.55 167.39 197.294 169.523C202.036 171.657 209.081 172.144 210.31 169.386C211.54 166.63 206.487 161.673 201.744 159.539Z" fill="#0DCC18"/>
<path fill-rule="evenodd" clip-rule="evenodd" d="M201.751 159.539C197.008 157.404 192.168 157.909 190.937 160.667C190.652 161.311 190.595 162.022 190.724 162.759C192.035 160.102 196.8 159.635 201.478 161.74C205.294 163.457 209.306 167 210.087 169.757C210.174 169.639 210.258 169.519 210.317 169.386C211.547 166.628 206.495 161.673 201.751 159.539Z" fill="black" fill-opacity="0.24"/>
<path fill-rule="evenodd" clip-rule="evenodd" d="M239.405 172.089C244.14 170.395 247.081 166.493 245.975 163.374C244.868 160.253 240.134 159.098 235.399 160.792C230.663 162.486 225.521 167.176 226.627 170.295C227.732 173.414 234.67 173.782 239.405 172.089Z" fill="#198B20"/>
<path fill-rule="evenodd" clip-rule="evenodd" d="M245.783 163.373C245.308 162.036 244.163 161.062 242.641 160.516C243.196 161.003 243.622 161.587 243.865 162.273C244.971 165.392 242.031 169.295 237.296 170.988C234.093 172.134 229.888 172.333 227.155 171.378C229.325 173.473 235.097 173.561 239.213 172.088C243.948 170.395 246.888 166.492 245.783 163.373Z" fill="black" fill-opacity="0.24"/>
<path fill-rule="evenodd" clip-rule="evenodd" d="M221.178 189.233C222.275 175.691 228.171 163.392 238.007 154.064C238.391 153.698 237.809 153.115 237.425 153.48C227.429 162.961 221.471 175.471 220.355 189.233C220.313 189.763 221.135 189.759 221.178 189.233Z" fill="#1E394C"/>
<path fill-rule="evenodd" clip-rule="evenodd" d="M221.948 191.572C222.285 174.877 217.067 158.862 206.944 145.613C206.627 145.197 205.914 145.608 206.234 146.029C216.273 159.169 221.461 175.011 221.126 191.572C221.116 192.103 221.937 192.103 221.948 191.572Z" fill="#1E394C"/>
<path fill-rule="evenodd" clip-rule="evenodd" d="M205.83 167.462C209.784 169.958 214.396 171.863 218.757 173.524C219.252 173.711 219.466 172.914 218.975 172.727C214.688 171.095 210.135 169.205 206.245 166.749C205.795 166.466 205.382 167.18 205.83 167.462Z" fill="#1E394C"/>
<path fill-rule="evenodd" clip-rule="evenodd" d="M237.335 168.114C233.378 169.773 229.332 171.132 225.175 172.194C224.664 172.325 224.881 173.121 225.395 172.991C229.549 171.926 233.596 170.569 237.555 168.909C238.035 168.707 237.824 167.909 237.335 168.114Z" fill="#1E394C"/>
<path fill-rule="evenodd" clip-rule="evenodd" d="M202.657 190.326L205.154 213.029C205.465 215.868 207.853 218.016 210.695 218.016H225.102C227.944 218.016 230.332 215.868 230.645 213.029L233.14 190.326C233.275 189.09 232.313 188.011 231.076 188.011H204.721C203.483 188.011 202.522 189.09 202.657 190.326Z" fill="#CEE5ED"/>
<path fill-rule="evenodd" clip-rule="evenodd" d="M239.534 188.011H230.397C231.635 188.011 232.597 189.09 232.462 190.326L229.965 213.03C229.653 215.868 227.266 218.015 224.423 218.015H233.56C236.404 218.015 238.79 215.868 239.103 213.03L241.598 190.326C241.735 189.09 240.772 188.011 239.534 188.011Z" fill="#AAC6CE"/>
<path fill-rule="evenodd" clip-rule="evenodd" d="M77.439 215.257H82.9996V161.92H77.439V215.257Z" fill="#AAC6CE"/>
<path fill-rule="evenodd" clip-rule="evenodd" d="M77.439 169.419H82.9996V161.921H77.439V169.419Z" fill="#85B0BA"/>
<path fill-rule="evenodd" clip-rule="evenodd" d="M104.4 215.276H57.7844C56.0063 215.276 54.563 216.723 54.563 218.508V220.172H107.623V218.508C107.623 216.723 106.18 215.276 104.4 215.276Z" fill="#AAC6CE"/>
<path fill-rule="evenodd" clip-rule="evenodd" d="M67.0379 161.973H105.569C91.5483 156.922 96.9717 109.342 99.5634 91.3043C100.086 87.671 97.2708 84.4202 93.6104 84.4202L67.9461 84.4188C62.6928 84.4188 58.2421 88.3027 57.5246 93.5229C55.2732 109.91 51.7239 143.892 58.7539 157.048C60.3838 160.1 63.586 161.973 67.0379 161.973Z" fill="#AAC6CE"/>
<mask id="mask0_0_126" style="mask-type:alpha" maskUnits="userSpaceOnUse" x="18" y="2" width="55" height="55">
<path fill-rule="evenodd" clip-rule="evenodd" d="M18.6946 2.37628H72.7121V56.5638H18.6946V2.37628Z" fill="white"/>
</mask>
<g mask="url(#mask0_0_126)">
<path fill-rule="evenodd" clip-rule="evenodd" d="M72.7121 29.4691C72.7121 14.5062 60.6209 2.37573 45.7033 2.37573C30.7858 2.37573 18.6946 14.5062 18.6946 29.4691C18.6946 44.4333 30.7858 56.5638 45.7033 56.5638C60.6209 56.5638 72.7121 44.4333 72.7121 29.4691Z" fill="#FF3378"/>
</g>
<path fill-rule="evenodd" clip-rule="evenodd" d="M67.7561 29.4691C67.7561 17.2519 57.8834 7.34821 45.7043 7.34821C33.5239 7.34821 23.6511 17.2519 23.6511 29.4691C23.6511 41.6863 33.5239 51.5913 45.7043 51.5913C57.8834 51.5913 67.7561 41.6863 67.7561 29.4691Z" fill="#CEE5ED"/>
<path fill-rule="evenodd" clip-rule="evenodd" d="M39.4402 37.0165C39.089 37.0165 38.7377 36.8816 38.4702 36.6132C37.9338 36.0751 37.9338 35.2053 38.4702 34.6672L44.2188 28.8992V13.7409C44.2188 12.9812 44.8334 12.3646 45.5908 12.3646C46.3495 12.3646 46.9627 12.9812 46.9627 13.7409V29.469C46.9627 29.8337 46.8187 30.1846 46.5608 30.442L40.4102 36.6132C40.1426 36.8816 39.7914 37.0165 39.4402 37.0165Z" fill="#3E8CCC"/>
<path fill-rule="evenodd" clip-rule="evenodd" d="M48.5764 29.0679C48.5764 27.3187 47.1632 25.8997 45.4167 25.8997C43.6729 25.8997 42.2598 27.3187 42.2598 29.0679C42.2598 30.8172 43.6729 32.2375 45.4167 32.2375C47.1632 32.2375 48.5764 30.8172 48.5764 29.0679Z" fill="#1E394C"/>
<path fill-rule="evenodd" clip-rule="evenodd" d="M48.5645 110.654C48.5645 105.555 44.9754 100.446 40.5466 100.446C36.1193 100.446 32.5288 105.555 32.5288 110.654C32.5288 115.753 36.1193 119.886 40.5466 119.886C44.9754 119.886 48.5645 115.753 48.5645 110.654Z" fill="#0DCC18"/>
<path opacity="0.24" fill-rule="evenodd" clip-rule="evenodd" d="M40.547 100.446C39.8336 100.446 39.1462 100.591 38.489 100.834C41.9176 102.103 44.4489 106.376 44.4489 110.654C44.4489 114.931 41.9176 118.519 38.489 119.568C39.1462 119.769 39.8336 119.886 40.547 119.886C44.9757 119.886 48.5648 115.753 48.5648 110.654C48.5648 105.555 44.9757 100.446 40.547 100.446Z" fill="black"/>
<path fill-rule="evenodd" clip-rule="evenodd" d="M31.4092 116.687L32.8471 129.736C33.0268 131.367 34.4001 132.602 36.0369 132.602H44.3291C45.9645 132.602 47.3393 131.367 47.519 129.736L48.9555 116.687C49.035 115.976 48.4794 115.356 47.7673 115.356H32.5974C31.8853 115.356 31.331 115.976 31.4092 116.687Z" fill="#CEE5ED"/>
<path fill-rule="evenodd" clip-rule="evenodd" d="M32.5976 117.305H47.7676C48.2368 117.305 48.6182 117.588 48.813 117.974L48.9557 116.686C49.0339 115.976 48.4796 115.355 47.7676 115.355H32.5976C31.8855 115.355 31.3313 115.976 31.4095 116.686L31.5508 117.974C31.7483 117.588 32.1284 117.305 32.5976 117.305Z" fill="#AAC6CE"/>
<path fill-rule="evenodd" clip-rule="evenodd" d="M47.7672 115.356H42.5084C43.2205 115.356 43.7747 115.977 43.6965 116.687L42.2587 129.737C42.079 131.368 40.7056 132.602 39.0688 132.602H44.329C45.9658 132.602 47.3391 131.368 47.5189 129.737L48.9553 116.687C49.0349 115.977 48.4806 115.356 47.7672 115.356Z" fill="#AAC6CE"/>
<path fill-rule="evenodd" clip-rule="evenodd" d="M114.205 207.384L113.662 211.157L116.521 214.829L123.779 211.265L124.563 207.815L115.532 206.446L114.205 207.384Z" fill="#F2BF75"/>
<path fill-rule="evenodd" clip-rule="evenodd" d="M120.061 219.522L120.81 218.592C120.948 218.421 121.205 218.417 121.347 218.585L122.1 219.47C122.405 219.828 122.852 220.03 123.321 220.022L140.179 219.734C140.5 219.404 140.585 218.837 140.207 218.455C137.736 215.953 124.438 211.631 123.778 211.266C123.117 210.9 119.049 214.071 113.661 211.157C113.661 211.157 112.787 215.389 112.661 218.132C112.61 219.252 113.491 220.19 114.608 220.172L118.887 220.097C119.344 220.089 119.774 219.88 120.061 219.522Z" fill="#1E394C"/>
<path fill-rule="evenodd" clip-rule="evenodd" d="M83.2683 143.653C83.2683 143.653 76.2685 151.415 89.0855 159.85C98.0788 165.767 105.165 163.96 110.808 167.546C112.132 168.387 113.138 169.64 113.232 171.209L113.518 207.496L114.201 207.836C117.597 209.527 121.577 209.571 125.009 207.954L130.115 166.551C130.296 163.697 128.759 161.291 126.997 159.042C117.196 146.536 99.8432 142.299 95.4501 141.576C89.7399 140.638 83.2683 143.653 83.2683 143.653Z" fill="#1E394C"/>
<path fill-rule="evenodd" clip-rule="evenodd" d="M86.3312 207.38L85.7344 211.144L88.5456 214.856L95.8486 211.392L96.6814 207.954L87.6702 206.461L86.3312 207.38Z" fill="#F2BF75"/>
<path fill-rule="evenodd" clip-rule="evenodd" d="M92.0202 219.597L92.7831 218.677C92.9216 218.509 93.1809 218.509 93.3195 218.678L94.059 219.571C94.3595 219.935 94.804 220.142 95.2732 220.142L112.133 220.085C112.459 219.76 112.552 219.194 112.179 218.807C109.743 216.272 96.5066 211.766 95.8494 211.392C95.1923 211.019 91.0818 214.132 85.7352 211.144C85.7352 211.144 84.8036 215.365 84.6404 218.107C84.5731 219.224 85.4416 220.175 86.5598 220.171L90.839 220.156C91.2958 220.155 91.728 219.951 92.0202 219.597Z" fill="#1E394C"/>
<path fill-rule="evenodd" clip-rule="evenodd" d="M61.9908 136.885C61.9908 136.885 53.5092 146.368 65.7733 157.078C74.3757 164.592 82.0958 161.379 87.5151 165.962C88.7855 167.037 89.6636 168.497 89.5374 170.159L85.6643 207.07L85.9565 207.26C89.3398 209.462 93.6163 209.755 97.2644 208.033L106.853 169.138C107.454 166.165 106.182 163.414 104.654 160.798C96.1435 146.244 82.7804 137.569 78.2666 136.178C72.4014 134.368 61.9908 136.885 61.9908 136.885Z" fill="#1E394C"/>
<path fill-rule="evenodd" clip-rule="evenodd" d="M108.78 166.507C108.135 166.232 107.478 166.012 106.806 165.819C106.449 164.085 105.598 162.406 104.65 160.796C100.438 153.584 95.0203 147.804 90.0798 143.661C93.1531 143.138 94.7171 142.478 95.5677 141.61C97.2567 141.886 100.658 142.656 104.774 144.115C108.945 151.107 108.931 162.461 108.78 166.507Z" fill="#0F2A3F"/>
<path fill-rule="evenodd" clip-rule="evenodd" d="M84.8253 86.7041C84.8253 86.7041 72.5942 85.0677 67.5096 94.6287C62.4264 104.19 54.8353 141.67 61.4729 142.811C64.4117 143.314 72.2498 145.294 80.933 144.656C92.8734 143.78 95.4691 142.677 96.3294 140.4L103.937 105.471C104.115 100.666 101.983 96.0435 98.1623 93.1396C92.0666 88.5057 84.8253 86.7041 84.8253 86.7041Z" fill="#CEE5ED"/>
<path fill-rule="evenodd" clip-rule="evenodd" d="M103.888 102.4C103.888 102.4 104.047 123.435 110.64 124.71C117.233 125.985 134.787 125.586 134.787 125.586V132.279H97.1367L103.888 102.4Z" fill="#AAC6CE"/>
<path fill-rule="evenodd" clip-rule="evenodd" d="M94.7721 92.8578L96.2566 85.4176L86.6363 78.0683L84.7937 86.8379C84.7937 86.8379 87.8271 100.23 94.7721 92.8578Z" fill="#EDB564"/>
<path fill-rule="evenodd" clip-rule="evenodd" d="M107.044 71.2385C107.044 71.2385 102.011 73.6951 94.6382 69.1878C94.6382 69.1878 92.9287 72.2721 87.9868 75.026C87.9868 75.026 85.4185 70.7086 83.9409 73.9442C83.4936 74.9242 83.2837 75.805 83.2617 76.5853C78.6341 70.5889 81.898 62.6891 86.2115 58.4309C90.3014 54.3887 99.152 55.9962 104.681 58.2258C110.55 60.5957 111.629 56.4724 111.629 56.4724C119.046 66.9528 107.044 71.2385 107.044 71.2385Z" fill="#1E394C"/>
<path fill-rule="evenodd" clip-rule="evenodd" d="M87.9845 75.0247C87.9845 75.0247 85.4175 70.7073 83.9399 73.9415C82.1467 77.8667 84.1704 80.3288 86.5974 80.3288C86.5974 80.3288 88.525 90.5367 97.8737 89.8141C107.224 89.0929 108.572 74.0324 107.044 71.2371C107.044 71.2371 102.01 73.6952 94.6386 69.1851C94.6386 69.1851 92.9291 72.2735 87.9845 75.0247Z" fill="#F2BF75"/>
<path fill-rule="evenodd" clip-rule="evenodd" d="M169.022 98.8998H129.996C128.073 98.8998 126.416 100.257 126.031 102.148L120.836 127.693H168.124L172.989 103.772C173.5 101.255 171.582 98.8998 169.022 98.8998Z" fill="#CEE5ED"/>
<path fill-rule="evenodd" clip-rule="evenodd" d="M167.972 127.696H103.477C102.414 127.696 101.551 128.56 101.551 129.628V130.253C101.551 131.321 102.414 132.187 103.477 132.187H167.972C169.037 132.187 169.898 131.321 169.898 130.253V129.628C169.898 128.56 169.037 127.696 167.972 127.696Z" fill="#80A9B2"/>
<path fill-rule="evenodd" clip-rule="evenodd" d="M167.972 127.695H120.319C121.382 127.695 122.244 128.561 122.244 129.628V130.254C122.244 131.32 121.382 132.186 120.319 132.186H167.972C169.037 132.186 169.898 131.32 169.898 130.254V129.628C169.898 128.561 169.037 127.695 167.972 127.695Z" fill="#AAC6CE"/>
<path fill-rule="evenodd" clip-rule="evenodd" d="M105.556 126.326C97.9585 125.438 76.6434 123.257 72.9912 122.878C68.3827 122.399 78.3913 103.755 79.504 97.38C80.6153 91.0065 75.7708 90.767 75.7708 90.767C73.0365 90.4243 70.051 90.767 67.5101 94.6288C62.309 102.531 56.5137 125.636 59.5664 131.34C59.9258 132.008 60.6269 132.419 61.3842 132.419H105.556V126.326Z" fill="#CEE5ED"/>
<path fill-rule="evenodd" clip-rule="evenodd" d="M105.556 126.326C105.556 126.326 78.1142 124.432 72.1968 123.634C67.6062 123.017 77.1743 103.915 78.2856 97.5397C79.3983 91.1661 74.4743 91.4318 74.4743 91.4318C73.2395 91.279 71.4587 91.4524 70.1882 91.835C72.0253 90.6239 73.9502 90.5413 75.7736 90.7643C75.7736 90.7643 80.6153 91.0065 79.504 97.38C78.3913 103.755 69.8137 122.002 72.7127 122.719C76.2784 123.601 97.9571 125.44 105.556 126.326Z" fill="#AAC6CE"/>
<path fill-rule="evenodd" clip-rule="evenodd" d="M105.556 132.519H115.793C116.561 132.519 117.023 131.666 116.605 131.02C115.646 129.542 114.133 127.454 113.023 127.101C112.361 126.89 107.384 127.076 105.556 127.27V132.519Z" fill="#F2BF75"/>
<path fill-rule="evenodd" clip-rule="evenodd" d="M107.044 71.2373C107.044 71.2373 106.204 71.6378 104.726 71.8167C104.601 72.5117 104.379 73.8481 104.258 75.1143C104.087 76.9199 104.987 82.5118 104.43 82.5544C103.872 82.5971 102.715 82.5118 102.715 82.5118C102.715 82.5118 101.857 90.5974 93.7971 89.3064C93.7202 89.2954 93.6599 89.2872 93.5872 89.2748C94.8082 89.7152 96.2186 89.9423 97.8732 89.8143C107.225 89.0931 108.572 74.0325 107.044 71.2373Z" fill="#EDB564"/>
<path fill-rule="evenodd" clip-rule="evenodd" d="M195.918 132.439H27.7684C25.8806 132.439 24.3508 133.974 24.3508 135.867V136.978C24.3508 138.872 25.8806 140.408 27.7684 140.408H195.918C197.806 140.408 199.336 138.872 199.336 136.978V135.867C199.336 133.974 197.806 132.439 195.918 132.439Z" fill="#FF3378"/>
<path opacity="0.24" fill-rule="evenodd" clip-rule="evenodd" d="M195.918 132.439H27.7684C25.8806 132.439 24.3508 133.974 24.3508 135.867V136.978C24.3508 137.343 24.4235 137.687 24.5278 138.017C24.9682 136.634 26.2442 135.627 27.7684 135.627H195.918C197.442 135.627 198.72 136.634 199.159 138.017C199.264 137.687 199.336 137.343 199.336 136.978V135.867C199.336 133.974 197.806 132.439 195.918 132.439Z" fill="white"/>
<path fill-rule="evenodd" clip-rule="evenodd" d="M80.9158 219.886H75.2961L36.1975 140.446H41.8185L80.9158 219.886Z" fill="#34648C"/>
<path fill-rule="evenodd" clip-rule="evenodd" d="M19.0413 219.886H24.6609L63.7595 140.446H58.1385L19.0413 219.886Z" fill="#34648C"/>
<path fill-rule="evenodd" clip-rule="evenodd" d="M201.966 219.886H196.346L157.248 140.446H162.869L201.966 219.886Z" fill="#34648C"/>
<path fill-rule="evenodd" clip-rule="evenodd" d="M140.092 219.886H145.711L184.81 140.446H179.189L140.092 219.886Z" fill="#34648C"/>
<path fill-rule="evenodd" clip-rule="evenodd" d="M43.3672 143.594L41.8183 140.446H36.1973L37.7462 143.594H43.3672Z" fill="#1A3651"/>
<path fill-rule="evenodd" clip-rule="evenodd" d="M62.2106 143.594L63.7596 140.446H58.1386L56.5896 143.594H62.2106Z" fill="#1A3651"/>
<path fill-rule="evenodd" clip-rule="evenodd" d="M164.418 143.594L162.869 140.446H157.248L158.797 143.594H164.418Z" fill="#1A3651"/>
<path fill-rule="evenodd" clip-rule="evenodd" d="M183.261 143.594L184.81 140.446H179.189L177.64 143.594H183.261Z" fill="#1A3651"/>
</svg>
