<svg width="238" height="257" viewBox="0 0 238 257" fill="none" xmlns="http://www.w3.org/2000/svg">
<path opacity="0.488049" fill-rule="evenodd" clip-rule="evenodd" d="M8.00012 251.905C8.00012 249.091 50.72 246.809 103.416 246.809C156.114 246.809 198.833 249.091 198.833 251.905C198.833 254.718 156.114 257 103.416 257C50.72 257 8.00012 254.718 8.00012 251.905Z" fill="#CEE5ED"/>
<path fill-rule="evenodd" clip-rule="evenodd" d="M9.19373 187.058C4.62964 182.215 3.49875 175.858 6.67277 172.86C9.84388 169.861 16.1181 171.356 20.6836 176.2C25.2491 181.044 28.4999 189.652 25.3273 192.65C22.1548 195.648 13.7593 191.902 9.19373 187.058Z" fill="#198B20"/>
<path fill-rule="evenodd" clip-rule="evenodd" d="M6.67204 172.86C7.65668 171.929 8.93961 171.433 10.3789 171.334C10.2269 171.449 10.0748 171.561 9.93439 171.692C6.76182 174.691 7.89126 181.048 12.4568 185.891C15.8915 189.534 21.4923 192.555 25.4062 192.553C25.3787 192.583 25.357 192.621 25.3266 192.65C22.154 195.648 13.76 191.902 9.19301 187.058C4.62892 182.215 3.49948 175.858 6.67204 172.86Z" fill="black" fill-opacity="0.24"/>
<path fill-rule="evenodd" clip-rule="evenodd" d="M32.4057 168.412C31.7946 161.879 34.5632 156.277 38.5901 155.9C42.6155 155.521 46.3731 160.513 46.9827 167.046C47.5938 173.579 45.109 182.218 41.0835 182.595C37.0581 182.972 33.0153 174.945 32.4057 168.412Z" fill="#0DCC18"/>
<path fill-rule="evenodd" clip-rule="evenodd" d="M38.5893 155.899C39.3408 155.83 40.0822 155.946 40.7946 156.225C37.4931 157.549 35.3646 162.608 35.9076 168.411C36.4129 173.822 39.2742 180.242 42.5278 182.08C42.0717 182.369 41.5895 182.547 41.0842 182.595C37.0573 182.972 33.0145 174.946 32.4049 168.411C31.7953 161.878 34.5638 156.276 38.5893 155.899Z" fill="black" fill-opacity="0.24"/>
<path fill-rule="evenodd" clip-rule="evenodd" d="M52.0015 163.392C54.7947 157.89 59.8062 154.827 63.1945 156.552C66.5857 158.276 67.0723 164.135 64.2791 169.638C61.4888 175.14 55.1784 180.76 51.7901 179.036C48.3989 177.311 49.2097 168.895 52.0015 163.392Z" fill="#198B20"/>
<path fill-rule="evenodd" clip-rule="evenodd" d="M52.0017 163.392C54.7949 157.89 59.8064 154.827 63.1947 156.552C64.4936 157.212 65.3624 158.48 65.7881 160.1C65.4782 159.804 65.135 159.548 64.7499 159.352C61.3587 157.627 56.3471 160.69 53.5554 166.192C51.5963 170.056 50.6189 175.346 51.3791 178.758C48.4831 176.567 49.3316 168.655 52.0017 163.392Z" fill="black" fill-opacity="0.24"/>
<path fill-rule="evenodd" clip-rule="evenodd" d="M57.3946 186.389C62.7754 183.975 68.2677 184.548 69.6635 187.665C71.058 190.784 67.826 195.268 62.4438 197.681C57.0631 200.093 49.0701 200.644 47.6757 197.525C46.2798 194.408 52.0124 188.803 57.3946 186.389Z" fill="#0DCC18"/>
<path fill-rule="evenodd" clip-rule="evenodd" d="M57.3949 186.389C62.7757 183.975 68.2679 184.547 69.6638 187.665C69.9881 188.393 70.0518 189.198 69.9056 190.031C68.4185 187.026 63.0117 186.498 57.7048 188.879C53.3752 190.82 48.8227 194.827 47.9366 197.944C47.8381 197.811 47.7425 197.676 47.6759 197.525C46.2801 194.407 52.0127 188.803 57.3949 186.389Z" fill="black" fill-opacity="0.24"/>
<path fill-rule="evenodd" clip-rule="evenodd" d="M7.71892 205.406C2.34685 203.49 -0.990788 199.077 0.264627 195.55C1.52004 192.021 6.89212 190.715 12.2642 192.63C17.6377 194.546 23.4717 199.85 22.2163 203.377C20.9623 206.905 13.091 207.321 7.71892 205.406Z" fill="#198B20"/>
<path fill-rule="evenodd" clip-rule="evenodd" d="M0.263939 195.549C0.802595 194.037 2.10145 192.935 3.82891 192.318C3.19903 192.868 2.7154 193.53 2.44028 194.305C1.18487 197.833 4.52106 202.246 9.89313 204.161C13.5276 205.457 18.2988 205.682 21.3989 204.602C18.9373 206.971 12.388 207.071 7.71824 205.405C2.34616 203.49 -0.990028 199.077 0.263939 195.549Z" fill="black" fill-opacity="0.24"/>
<path fill-rule="evenodd" clip-rule="evenodd" d="M35.6653 224.794C34.4215 209.48 27.7318 195.57 16.572 185.021C16.1362 184.608 16.7965 183.948 17.2323 184.361C28.573 195.083 35.3337 209.23 36.5993 224.794C36.6471 225.393 35.7146 225.389 35.6653 224.794Z" fill="#1E394C"/>
<path fill-rule="evenodd" clip-rule="evenodd" d="M39.0571 222.615C38.6748 203.736 44.5957 185.624 56.0812 170.64C56.4403 170.171 57.2497 170.635 56.8863 171.112C45.4963 185.971 39.6102 203.886 39.9896 222.615C40.0012 223.215 39.0701 223.215 39.0571 222.615Z" fill="#1E394C"/>
<path fill-rule="evenodd" clip-rule="evenodd" d="M42.9971 195.204C40.4559 187.096 39.8057 178.486 39.4944 170.036C39.4727 169.436 40.4052 169.436 40.4269 170.036C40.7354 178.41 41.3783 186.922 43.8963 194.956C44.0759 195.53 43.1767 195.775 42.9971 195.204Z" fill="#1E394C"/>
<path fill-rule="evenodd" clip-rule="evenodd" d="M57.4823 193.641C52.9964 196.464 47.7633 198.619 42.8155 200.498C42.2537 200.709 42.0104 199.807 42.5679 199.596C47.4318 197.75 52.5982 195.613 57.0117 192.835C57.5214 192.515 57.9906 193.322 57.4823 193.641Z" fill="#1E394C"/>
<path fill-rule="evenodd" clip-rule="evenodd" d="M17.7712 200.91C22.2614 202.786 26.8516 204.323 31.5677 205.525C32.1483 205.673 31.9022 206.573 31.3186 206.425C26.6054 205.222 22.0138 203.687 17.5221 201.809C16.9777 201.582 17.2166 200.678 17.7712 200.91Z" fill="#1E394C"/>
<path fill-rule="evenodd" clip-rule="evenodd" d="M54.6828 220.456L51.8505 246.131C51.4972 249.341 48.788 251.771 45.5633 251.771H29.2169C25.9922 251.771 23.283 249.341 22.9282 246.131L20.0974 220.456C19.9439 219.058 21.0357 217.838 22.4388 217.838H52.3414C53.746 217.838 54.8363 219.058 54.6828 220.456Z" fill="#CEE5ED"/>
<path fill-rule="evenodd" clip-rule="evenodd" d="M22.4392 217.838H32.8069C31.4023 217.838 30.3105 219.059 30.464 220.456L33.2963 246.131C33.6511 249.341 36.3588 251.77 39.585 251.77H29.2173C25.9911 251.77 23.2834 249.341 22.9286 246.131L20.0978 220.456C19.9429 219.059 21.0347 217.838 22.4392 217.838Z" fill="#AAC6CE"/>
<path fill-rule="evenodd" clip-rule="evenodd" d="M154.5 167.87C108.384 167.87 71 130.291 71 83.9351C71 37.579 108.384 0 154.5 0C200.616 0 238 37.579 238 83.9351C238 130.291 200.616 167.87 154.5 167.87Z" fill="#F7F7F7"/>
<path fill-rule="evenodd" clip-rule="evenodd" d="M155 28.9775C124.625 28.9775 100 53.5835 100 83.9351C100 114.287 124.625 138.893 155 138.893C185.375 138.893 210 114.287 210 83.9351C210 53.5835 185.375 28.9775 155 28.9775ZM178.84 74.6422C179.279 74.1408 179.613 73.5568 179.823 72.9244C180.033 72.292 180.114 71.6241 180.061 70.96C180.009 70.2959 179.824 69.6489 179.518 69.0572C179.212 68.4655 178.79 67.9409 178.278 67.5145C177.766 67.088 177.173 66.7681 176.535 66.5738C175.898 66.3794 175.228 66.3145 174.564 66.3828C173.901 66.451 173.258 66.6511 172.674 66.9713C172.089 67.2915 171.574 67.7253 171.16 68.2472L149.66 94.0223L138.535 82.9009C137.592 81.9908 136.329 81.4872 135.018 81.4986C133.707 81.51 132.453 82.0354 131.526 82.9617C130.599 83.888 130.073 85.1411 130.062 86.4511C130.05 87.7611 130.554 89.0231 131.465 89.9654L146.465 104.954C146.956 105.444 147.544 105.827 148.192 106.078C148.84 106.329 149.532 106.442 150.226 106.411C150.92 106.379 151.6 106.204 152.222 105.895C152.844 105.587 153.395 105.152 153.84 104.619L178.84 74.6422Z" fill="#71B03E"/>
</svg>
