<svg width="237" height="257" viewBox="0 0 237 257" fill="none" xmlns="http://www.w3.org/2000/svg">
<path fill-rule="evenodd" clip-rule="evenodd" d="M153.5 168C107.384 168 70 130.392 70 84C70 37.6081 107.384 0 153.5 0C199.616 0 237 37.6081 237 84C237 130.392 199.616 168 153.5 168Z" fill="#F7F7F7"/>
<path opacity="0.488049" fill-rule="evenodd" clip-rule="evenodd" d="M7.45911 251.901C7.45911 249.085 50.179 246.801 102.875 246.801C155.573 246.801 198.292 249.085 198.292 251.901C198.292 254.716 155.573 257 102.875 257C50.179 257 7.45911 254.716 7.45911 251.901Z" fill="#CEE5ED"/>
<path fill-rule="evenodd" clip-rule="evenodd" d="M9.19324 185.834C4.62915 180.988 3.49826 174.625 6.67228 171.625C9.84339 168.624 16.1176 170.12 20.6831 174.968C25.2487 179.815 28.4994 188.429 25.3268 191.43C22.1543 194.431 13.7588 190.681 9.19324 185.834Z" fill="#198B20"/>
<path fill-rule="evenodd" clip-rule="evenodd" d="M6.67156 171.625C7.65619 170.693 8.93912 170.197 10.3784 170.098C10.2264 170.213 10.0744 170.325 9.9339 170.457C6.76133 173.457 7.89077 179.82 12.4563 184.666C15.891 188.312 21.4918 191.336 25.4058 191.333C25.3782 191.363 25.3565 191.401 25.3261 191.43C22.1536 194.431 13.7595 190.681 9.19252 185.834C4.62843 180.988 3.49899 174.625 6.67156 171.625Z" fill="black" fill-opacity="0.24"/>
<path fill-rule="evenodd" clip-rule="evenodd" d="M32.4052 167.173C31.7942 160.635 34.5627 155.029 38.5896 154.652C42.615 154.273 46.3726 159.269 46.9822 165.807C47.5933 172.344 45.1085 180.991 41.0831 181.368C37.0576 181.745 33.0148 173.711 32.4052 167.173Z" fill="#0DCC18"/>
<path fill-rule="evenodd" clip-rule="evenodd" d="M38.5888 154.651C39.3403 154.582 40.0817 154.698 40.7941 154.978C37.4927 156.302 35.3641 161.365 35.9071 167.173C36.4124 172.588 39.2737 179.013 42.5273 180.852C42.0712 181.141 41.589 181.32 41.0837 181.367C37.0568 181.745 33.014 173.712 32.4044 167.173C31.7948 160.635 34.5634 155.028 38.5888 154.651Z" fill="black" fill-opacity="0.24"/>
<path fill-rule="evenodd" clip-rule="evenodd" d="M52.001 162.15C54.7942 156.644 59.8057 153.578 63.194 155.305C66.5852 157.03 67.0718 162.893 64.2786 168.401C61.4883 173.907 55.1779 179.531 51.7896 177.806C48.3984 176.079 49.2093 167.657 52.001 162.15Z" fill="#198B20"/>
<path fill-rule="evenodd" clip-rule="evenodd" d="M52.0012 162.15C54.7944 156.644 59.8059 153.578 63.1942 155.305C64.4931 155.965 65.3619 157.235 65.7876 158.855C65.4777 158.559 65.1346 158.302 64.7494 158.107C61.3582 156.38 56.3466 159.446 53.5549 164.952C51.5958 168.819 50.6184 174.113 51.3786 177.527C48.4826 175.335 49.3311 167.417 52.0012 162.15Z" fill="black" fill-opacity="0.24"/>
<path fill-rule="evenodd" clip-rule="evenodd" d="M57.3942 185.165C62.7749 182.749 68.2672 183.322 69.6631 186.442C71.0575 189.563 67.8255 194.05 62.4433 196.465C57.0626 198.879 49.0696 199.431 47.6752 196.31C46.2793 193.19 52.0119 187.581 57.3942 185.165Z" fill="#0DCC18"/>
<path fill-rule="evenodd" clip-rule="evenodd" d="M57.3944 185.165C62.7752 182.749 68.2674 183.321 69.6633 186.442C69.9876 187.17 70.0514 187.975 69.9051 188.81C68.418 185.802 63.0112 185.274 57.7043 187.656C53.3748 189.599 48.8222 193.609 47.9361 196.729C47.8376 196.595 47.742 196.461 47.6754 196.31C46.2796 193.189 52.0122 187.581 57.3944 185.165Z" fill="black" fill-opacity="0.24"/>
<path fill-rule="evenodd" clip-rule="evenodd" d="M7.71844 204.196C2.34636 202.279 -0.991276 197.862 0.264139 194.332C1.51955 190.801 6.89163 189.493 12.2637 191.41C17.6372 193.328 23.4712 198.636 22.2158 202.166C20.9618 205.696 13.0905 206.113 7.71844 204.196Z" fill="#198B20"/>
<path fill-rule="evenodd" clip-rule="evenodd" d="M0.263451 194.332C0.802107 192.818 2.10096 191.716 3.82842 191.098C3.19854 191.649 2.71491 192.311 2.43979 193.087C1.18438 196.617 4.52057 201.034 9.89264 202.95C13.5271 204.248 18.2983 204.472 21.3984 203.392C18.9368 205.762 12.3875 205.862 7.71775 204.195C2.34567 202.279 -0.990517 197.862 0.263451 194.332Z" fill="black" fill-opacity="0.24"/>
<path fill-rule="evenodd" clip-rule="evenodd" d="M35.6649 223.6C34.421 208.273 27.7313 194.353 16.5715 183.796C16.1357 183.382 16.796 182.722 17.2318 183.135C28.5726 193.865 35.3333 208.024 36.5988 223.6C36.6466 224.199 35.7141 224.194 35.6649 223.6Z" fill="#1E394C"/>
<path fill-rule="evenodd" clip-rule="evenodd" d="M39.0566 221.419C38.6743 202.525 44.5952 184.399 56.0807 169.404C56.4398 168.934 57.2492 169.398 56.8858 169.875C45.4958 184.746 39.6097 202.675 39.9891 221.419C40.0007 222.019 39.0696 222.019 39.0566 221.419Z" fill="#1E394C"/>
<path fill-rule="evenodd" clip-rule="evenodd" d="M42.9967 193.986C40.4554 185.872 39.8053 177.255 39.4939 168.799C39.4722 168.198 40.4047 168.198 40.4265 168.799C40.7349 177.18 41.3778 185.698 43.8959 193.738C44.0754 194.313 43.1762 194.558 42.9967 193.986Z" fill="#1E394C"/>
<path fill-rule="evenodd" clip-rule="evenodd" d="M57.4818 192.422C52.9959 195.247 47.7629 197.404 42.815 199.284C42.2532 199.496 42.01 198.593 42.5674 198.381C47.4313 196.534 52.5977 194.396 57.0112 191.616C57.5209 191.295 57.9901 192.103 57.4818 192.422Z" fill="#1E394C"/>
<path fill-rule="evenodd" clip-rule="evenodd" d="M17.7707 199.697C22.2609 201.575 26.8511 203.113 31.5672 204.315C32.1478 204.463 31.9017 205.364 31.3181 205.216C26.6049 204.012 22.0133 202.476 17.5216 200.597C16.9772 200.369 17.2161 199.465 17.7707 199.697Z" fill="#1E394C"/>
<path fill-rule="evenodd" clip-rule="evenodd" d="M54.6823 219.258L51.8501 244.953C51.4967 248.165 48.7875 250.597 45.5629 250.597H29.2164C25.9917 250.597 23.2825 248.165 22.9277 244.953L20.0969 219.258C19.9434 217.859 21.0352 216.638 22.4383 216.638H52.3409C53.7455 216.638 54.8358 217.859 54.6823 219.258Z" fill="#CEE5ED"/>
<path fill-rule="evenodd" clip-rule="evenodd" d="M22.4387 216.638H32.8064C31.4018 216.638 30.31 217.86 30.4635 219.258L33.2958 244.953C33.6506 248.166 36.3583 250.596 39.5845 250.596H29.2168C25.9907 250.596 23.2829 248.166 22.9281 244.953L20.0973 219.258C19.9424 217.86 21.0342 216.638 22.4387 216.638Z" fill="#AAC6CE"/>
<path d="M150.82 99.0664V103H126.157V99.5581L138.501 85.8164C140.02 84.1257 141.193 82.6937 142.021 81.5205C142.866 80.3301 143.453 79.269 143.781 78.3374C144.126 77.3885 144.298 76.4224 144.298 75.439C144.298 74.1968 144.04 73.0754 143.522 72.0747C143.022 71.0568 142.28 70.2459 141.296 69.6421C140.313 69.0382 139.123 68.7363 137.725 68.7363C136.052 68.7363 134.654 69.0641 133.533 69.7197C132.429 70.3581 131.6 71.2552 131.048 72.4111C130.496 73.5671 130.22 74.8955 130.22 76.3965H125.433C125.433 74.2744 125.898 72.3335 126.83 70.5737C127.762 68.814 129.142 67.4165 130.971 66.3813C132.799 65.3289 135.051 64.8027 137.725 64.8027C140.106 64.8027 142.142 65.2254 143.833 66.0708C145.523 66.8989 146.817 68.0721 147.714 69.5903C148.629 71.0913 149.086 72.8511 149.086 74.8696C149.086 75.9738 148.896 77.0952 148.517 78.2339C148.154 79.3553 147.645 80.4767 146.99 81.5981C146.351 82.7196 145.601 83.8237 144.738 84.9106C143.893 85.9976 142.987 87.0672 142.021 88.1196L131.928 99.0664H150.82ZM181.409 90.3193V94.2529H154.184V91.4321L171.057 65.3203H174.965L170.772 72.877L159.619 90.3193H181.409ZM176.155 65.3203V103H171.368V65.3203H176.155Z" fill="#424242"/>
<circle cx="153.5" cy="84.5" r="57" stroke="#71B03E" stroke-width="5"/>
</svg>
