<svg width="28" height="28" viewBox="0 0 28 28" fill="none" xmlns="http://www.w3.org/2000/svg">
<path d="M4.10352 9.6416H24.011V24.1244H4.10352L4.10352 9.6416Z" fill="#F5F5F5"/>
<path d="M22.207 10.4863H25.5863V23.1187H22.207L22.207 10.4863Z" fill="#F0F0F0"/>
<path d="M5.79312 22.894H2.41382V10.9287H5.79312V22.894Z" fill="#F0F0F0"/>
<path d="M21.2415 9.40039H26.5517V10.6074C26.5517 11.1406 26.1195 11.5727 25.5863 11.5727H22.207C21.6736 11.5727 21.2415 11.1406 21.2415 10.6074L21.2415 9.40039Z" fill="#D4D7D9"/>
<path d="M22.207 22.1934H25.5863C26.1195 22.1934 26.5517 22.6257 26.5517 23.1589V24.3659H21.2415V23.1589C21.2415 22.6257 21.6736 22.1934 22.207 22.1934Z" fill="#D4D7D9"/>
<path d="M5.79291 11.5727H2.4136C1.8804 11.5727 1.44824 11.1406 1.44824 10.6074V9.40039H6.75848V10.6074C6.75848 11.1406 6.32632 11.5727 5.79291 11.5727Z" fill="#D4D7D9"/>
<path d="M6.75848 24.3659H1.44824V23.1589C1.44824 22.6257 1.8804 22.1934 2.4136 22.1934H5.79291C6.32632 22.1934 6.75848 22.6257 6.75848 23.1589V24.3659Z" fill="#D4D7D9"/>
<path d="M0.965576 7.08301H27.5172V9.15878C27.5172 9.42538 27.301 9.64157 27.0344 9.64157H1.44836C1.18176 9.64157 0.965576 9.42538 0.965576 9.15878V7.08301Z" fill="#005EEE"/>
<path d="M13.7695 21.9252C16.649 21.9252 18.9833 19.6287 18.9833 16.7959C18.9833 13.963 16.649 11.6665 13.7695 11.6665C10.89 11.6665 8.55566 13.963 8.55566 16.7959C8.55566 19.6287 10.89 21.9252 13.7695 21.9252Z" fill="#FFD300"/>
<path d="M13.7694 21.9254C16.649 21.9254 18.9834 19.6288 18.9834 16.7959V16.7854C18.9833 16.7845 18.9833 16.7838 18.9833 16.7829V16.7785L18.9833 16.7765V16.7722C18.9833 16.7714 18.9833 16.7706 18.9833 16.7698V16.7678C18.9832 16.767 18.9832 16.7663 18.9832 16.7654V16.7635C18.9833 16.7626 18.9833 16.7618 18.9833 16.761L18.9832 16.7591C18.9832 16.7582 18.9832 16.7573 18.9832 16.7565V16.7548C18.9832 16.7538 18.9832 16.7528 18.9832 16.7518L18.9831 16.7504C18.9831 16.7489 18.9831 16.7476 18.9831 16.7461V16.7455C18.9831 16.7442 18.9831 16.743 18.9831 16.7418V16.7401L18.983 16.7374V16.7357L18.983 16.733L18.983 16.7313L18.9829 16.7287C18.9829 16.7282 18.9829 16.7274 18.9829 16.7269L18.9828 16.7244L18.9828 16.7225L18.9828 16.72L18.9827 16.7181C18.9827 16.7173 18.9827 16.7165 18.9827 16.7157C18.9827 16.715 18.9827 16.7145 18.9827 16.7138C18.9827 16.7129 18.9826 16.712 18.9826 16.7112L18.9826 16.7094L18.9826 16.7067L18.9825 16.7051L18.9825 16.7012L18.9824 16.7008L18.9824 16.6964L18.9823 16.6953L18.9823 16.6921L18.9822 16.6904C18.9822 16.6896 18.9822 16.6886 18.9822 16.6878L18.9822 16.6859L18.9821 16.6834L18.9821 16.6815C18.982 16.6807 18.982 16.6799 18.982 16.679C18.982 16.6784 18.982 16.6778 18.982 16.6771L18.9819 16.6747C18.9819 16.6741 18.9819 16.6735 18.9819 16.6728L18.9819 16.6703L18.9818 16.6685L18.9818 16.6658L18.9817 16.6642C18.9817 16.6633 18.9817 16.6622 18.9816 16.6613L18.9816 16.6598L18.9815 16.6567L18.9815 16.6555C18.9814 16.6542 18.9813 16.6529 18.9813 16.6516L18.9813 16.6504C18.9813 16.6492 18.9812 16.648 18.9812 16.6468L18.9812 16.6455C18.9811 16.6445 18.9811 16.6435 18.9811 16.6425L18.981 16.6409L18.981 16.6381L18.9809 16.6364L18.9808 16.6338L18.9808 16.632C18.9807 16.6312 18.9807 16.6303 18.9806 16.6294L18.9806 16.6277C18.9806 16.6268 18.9806 16.626 18.9805 16.6252L18.9804 16.6233L18.9804 16.6209L18.9803 16.6189C18.9803 16.6182 18.9803 16.6173 18.9802 16.6166L18.9801 16.6146C18.9801 16.6137 18.9801 16.6128 18.98 16.6119L18.98 16.6104L18.9798 16.6071L18.9798 16.606C18.9797 16.6045 18.9797 16.6032 18.9796 16.6017L18.9796 16.6011L18.9794 16.5974L18.9794 16.5959C18.9794 16.595 18.9793 16.594 18.9793 16.5931L18.9792 16.5914L18.9791 16.5888L18.979 16.5869C18.979 16.5861 18.979 16.5853 18.9789 16.5845L18.9788 16.5826L18.9787 16.5801C18.9787 16.5795 18.9787 16.5789 18.9786 16.5782L18.9785 16.5758L18.9784 16.574C18.9784 16.5731 18.9784 16.5722 18.9783 16.5713L18.9783 16.5697L18.9781 16.5666L18.9781 16.5654L18.9779 16.5621L18.9779 16.561L18.9775 16.5523L18.9774 16.5517C18.9774 16.5505 18.9773 16.5492 18.9773 16.548L18.9772 16.5469C18.9772 16.5459 18.9771 16.5447 18.977 16.5437L18.9769 16.5422L18.9768 16.5393L18.9767 16.5379C18.9767 16.5368 18.9766 16.536 18.9766 16.535L18.9765 16.5335L18.9763 16.5306L18.9762 16.5291C18.9762 16.5283 18.9761 16.5272 18.9761 16.5264C18.9761 16.5259 18.976 16.5253 18.976 16.5247L18.9758 16.5219L18.9758 16.5205C18.9757 16.5195 18.9757 16.5184 18.9756 16.5174L18.9755 16.5162C18.9755 16.515 18.9754 16.5139 18.9753 16.5128L18.9753 16.5118L18.9751 16.5075L18.975 16.5069L18.9748 16.5031L18.9747 16.502C18.9747 16.5009 18.9746 16.4999 18.9745 16.4988L18.9745 16.4973L18.9743 16.4946L18.9742 16.4928C18.9742 16.492 18.9741 16.4912 18.974 16.4903C18.974 16.4898 18.9739 16.4889 18.9739 16.4884L18.9738 16.486L18.9737 16.4842L18.9735 16.4817L18.9734 16.4798C18.9734 16.479 18.9733 16.4782 18.9732 16.4773L18.9731 16.4756C18.973 16.4748 18.973 16.4738 18.9729 16.473L18.9728 16.4712C18.9728 16.4703 18.9727 16.4693 18.9727 16.4683L18.9726 16.467L18.9723 16.4635L18.9723 16.4627L18.972 16.4583L18.972 16.4582L18.9717 16.4541L18.9716 16.4528L18.9714 16.4497L18.9713 16.4484L18.9711 16.4454L18.971 16.4439L18.9708 16.4411L18.9707 16.4395C18.9706 16.4386 18.9706 16.4378 18.9705 16.4369L18.9704 16.4352L18.9702 16.4324L18.9701 16.4309L18.9699 16.4282L18.9698 16.4266L18.9696 16.4237L18.9695 16.4223C18.9694 16.4212 18.9693 16.4201 18.9692 16.419L18.9691 16.418C18.9689 16.4151 18.9687 16.4121 18.9685 16.4093L18.9685 16.409C18.9684 16.4076 18.9683 16.4062 18.9682 16.4049L18.9681 16.4041L18.9678 16.4007L18.9677 16.3995L18.9675 16.3963L18.9674 16.3951C18.9673 16.3941 18.9672 16.393 18.9671 16.392L18.967 16.3907L18.9668 16.3878L18.9667 16.3863C18.9666 16.3853 18.9665 16.3845 18.9664 16.3834L18.9663 16.382C18.9662 16.3809 18.9661 16.3799 18.9661 16.3789L18.966 16.3777C18.9658 16.3766 18.9658 16.3756 18.9657 16.3745L18.9656 16.3734L18.9653 16.3696L18.9653 16.3691C18.9651 16.3676 18.965 16.3662 18.9649 16.3647L18.9649 16.3645C18.9648 16.3632 18.9646 16.3618 18.9645 16.3604L18.9644 16.3595L18.9642 16.3563L18.964 16.3547C18.9639 16.3538 18.9639 16.3528 18.9638 16.3519L18.9636 16.3504L18.9634 16.3477L18.9632 16.3461L18.963 16.3433L18.9628 16.3418C18.9627 16.3409 18.9627 16.3399 18.9626 16.339L18.9625 16.3375L18.9622 16.3346L18.9621 16.3332L18.9618 16.3304L18.9617 16.3289C18.9616 16.3278 18.9615 16.3268 18.9614 16.3257L18.9613 16.3247C18.961 16.3218 18.9607 16.3189 18.9605 16.316L18.9604 16.3157C18.9603 16.3144 18.9602 16.313 18.9601 16.3117L18.96 16.3106C18.9599 16.3095 18.9598 16.3085 18.9597 16.3074L18.9596 16.3062C18.9595 16.3052 18.9594 16.3041 18.9593 16.3031L18.9591 16.3017L18.9589 16.2989C18.9588 16.2984 18.9588 16.2978 18.9587 16.2973L18.9584 16.2947L18.9583 16.293L18.958 16.2903L18.9578 16.2888C18.9577 16.2878 18.9576 16.2869 18.9576 16.2859L18.9574 16.2845L18.9571 16.2813L18.957 16.2803C18.9569 16.2791 18.9567 16.2778 18.9566 16.2766L18.9566 16.276C18.9562 16.273 18.9559 16.2702 18.9557 16.2673L18.9556 16.267L18.9552 16.263L18.9551 16.2619C18.955 16.2609 18.9549 16.2598 18.9548 16.2588L18.9546 16.2573L18.9543 16.2545L18.9541 16.253L18.9539 16.2503L18.9537 16.2487L18.9534 16.246L18.9532 16.2444L18.953 16.2417L18.9528 16.2402C18.9527 16.2392 18.9525 16.2383 18.9525 16.2373L18.9523 16.2359C18.9522 16.235 18.9521 16.2339 18.952 16.2329L18.9518 16.2316L18.9515 16.2285L18.9513 16.2273L18.9508 16.2231L18.9508 16.2226L18.9504 16.2189L18.9502 16.2177L18.9499 16.2146L18.9497 16.2132C18.9496 16.2123 18.9495 16.2112 18.9494 16.2103L18.9492 16.209L18.9488 16.2061L18.9487 16.2046L18.9483 16.2018L18.9481 16.2003C18.948 16.1994 18.9479 16.1984 18.9478 16.1975L18.9477 16.1961C18.9475 16.1951 18.9474 16.1942 18.9473 16.1932L18.9471 16.1919L18.9468 16.189L18.9466 16.1875L18.9463 16.1846L18.9461 16.1833C18.9459 16.1821 18.9458 16.1808 18.9456 16.1796L18.9456 16.1791C18.9452 16.1763 18.9449 16.1734 18.9445 16.1706L18.9444 16.1694C18.9442 16.1684 18.9441 16.1674 18.944 16.1664L18.9438 16.165L18.9435 16.1622L18.9433 16.1607L18.9429 16.1579L18.9428 16.1564L18.9424 16.1537L18.9422 16.1521L18.9419 16.1495L18.9416 16.1478L18.9413 16.145L18.9411 16.1437C18.941 16.1426 18.9408 16.1415 18.9407 16.1404L18.9406 16.1394L18.9401 16.1359L18.94 16.1352L18.9389 16.1266L18.9388 16.1259L18.9383 16.1224L18.9381 16.1211L18.9377 16.1182L18.9375 16.1167L18.9372 16.1139L18.937 16.1126L18.9366 16.1097L18.9364 16.1083C18.9363 16.1074 18.9361 16.1063 18.936 16.1054L18.9358 16.104L18.9355 16.1012C18.9354 16.1007 18.9353 16.1002 18.9352 16.0996L18.9348 16.0968L18.9347 16.0955L18.9342 16.0923L18.9341 16.0913L18.9335 16.0873L18.9335 16.0871C18.9331 16.0842 18.9327 16.0814 18.9323 16.0784L18.9322 16.078L18.9317 16.0743L18.9315 16.0731L18.931 16.07L18.9309 16.0688L18.9304 16.0659L18.9302 16.0645L18.9298 16.0616L18.9296 16.0603C18.9294 16.0593 18.9293 16.0584 18.9292 16.0574L18.929 16.056C18.9288 16.055 18.9287 16.054 18.9286 16.053L18.9284 16.0519L18.9279 16.0487L18.9278 16.0476L18.9272 16.0439L18.9271 16.0435L18.9252 16.0306L18.9251 16.0301C18.9249 16.0288 18.9248 16.0276 18.9245 16.0263L18.9244 16.0255L18.9239 16.0221L18.9237 16.021C18.9236 16.02 18.9234 16.0189 18.9232 16.0179L18.9231 16.0169C18.9229 16.0158 18.9227 16.0148 18.9226 16.0137L18.9224 16.0125C18.9222 16.0114 18.9221 16.0104 18.9219 16.0093L18.9217 16.0084L18.9212 16.005L18.9211 16.0041L18.9205 16.0003L18.9204 16C18.9202 15.9985 18.92 15.9972 18.9197 15.9957V15.9957C18.919 15.9913 18.9183 15.9871 18.9176 15.9827L18.9176 15.9824L18.917 15.9786L18.9168 15.9776L18.9162 15.9743L18.9161 15.9733L18.9155 15.9702L18.9154 15.969L18.9148 15.9659L18.9147 15.9648L18.9142 15.9617L18.914 15.9606L18.9134 15.9572L18.9133 15.9564C18.9131 15.9551 18.9129 15.9539 18.9127 15.9527L18.9126 15.9522C18.9119 15.9479 18.9111 15.9437 18.9104 15.9394L18.9103 15.9389C18.9101 15.9376 18.9099 15.9364 18.9097 15.9352L18.9095 15.9342L18.9089 15.9309L18.9088 15.9299L18.9082 15.9268L18.908 15.9255C18.9078 15.9245 18.9076 15.9235 18.9075 15.9225L18.9073 15.9214L18.9067 15.9182L18.9065 15.9172C18.9063 15.9161 18.9061 15.915 18.906 15.9139L18.9058 15.9129C18.9056 15.9119 18.9054 15.9108 18.9052 15.9097L18.9051 15.9087L18.9044 15.9048L18.9043 15.9046C18.9036 15.9003 18.9028 15.896 18.902 15.8917L18.902 15.8915C18.9017 15.8901 18.9015 15.8888 18.9013 15.8875L18.9012 15.887L18.9005 15.8833L18.9003 15.8826C18.9001 15.8814 18.8999 15.8802 18.8997 15.8791L18.8995 15.8783C18.8994 15.8772 18.8992 15.8761 18.8989 15.875L18.8987 15.8739L18.8981 15.8706L18.8979 15.8698C18.8977 15.8686 18.8975 15.8675 18.8973 15.8663L18.8972 15.8656C18.8969 15.8643 18.8967 15.863 18.8965 15.8618L18.8964 15.8614C18.8953 15.8557 18.8943 15.8501 18.8932 15.8444L18.8931 15.8438L18.8924 15.8402L18.8922 15.8393C18.892 15.8381 18.8918 15.8372 18.8916 15.836L18.8914 15.835L18.8908 15.8318L18.8906 15.8308C18.8904 15.8298 18.8902 15.8286 18.8899 15.8275L18.8898 15.8267L18.8891 15.8232L18.8889 15.8224L18.8882 15.8187L18.8881 15.8183C18.8878 15.817 18.8876 15.8156 18.8873 15.8143L18.8873 15.8141C18.8862 15.8085 18.8851 15.8027 18.8839 15.7971L18.8838 15.7965L18.8831 15.7929L18.8829 15.7922C18.8827 15.7911 18.8824 15.7898 18.8822 15.7888L18.882 15.7878C18.8818 15.7868 18.8816 15.7856 18.8814 15.7846L18.8811 15.7836C18.8809 15.7826 18.8807 15.7814 18.8805 15.7803L18.8803 15.7795L18.8796 15.7759L18.8795 15.7753L18.8787 15.7716L18.8786 15.7712C18.8771 15.764 18.8757 15.757 18.8742 15.7499L18.8741 15.7498C18.8738 15.7484 18.8736 15.7471 18.8733 15.7457L18.8732 15.7452C18.8729 15.744 18.8727 15.7429 18.8724 15.7416L18.8723 15.7409L18.8715 15.7375L18.8714 15.7366L18.8706 15.7331L18.8705 15.7325L18.8697 15.7288L18.8696 15.7283C18.8681 15.7213 18.8665 15.7142 18.865 15.7071V15.7071L18.8641 15.7031L18.864 15.7024C18.8637 15.7012 18.8635 15.7001 18.8632 15.6989L18.863 15.6981C18.8628 15.6971 18.8625 15.6959 18.8623 15.6948L18.862 15.6939C18.8618 15.6928 18.8616 15.6917 18.8613 15.6906L18.8611 15.6897C18.8609 15.6886 18.8606 15.6876 18.8604 15.6865L18.8602 15.6855C18.8599 15.6844 18.8596 15.6833 18.8594 15.6821L18.8592 15.6814L18.8583 15.6776L18.8583 15.6773C18.8573 15.6731 18.8564 15.6689 18.8554 15.6646L18.8553 15.6644C18.8551 15.6631 18.8547 15.6618 18.8545 15.6606L18.8543 15.6598C18.854 15.6586 18.8538 15.6575 18.8535 15.6564L18.8533 15.6555L18.8526 15.6522L18.8523 15.6513C18.8521 15.6502 18.8518 15.6491 18.8516 15.648L18.8514 15.6471L18.8506 15.6438L18.8504 15.643L18.8495 15.6394L18.8494 15.6389C18.8492 15.6376 18.8489 15.6365 18.8486 15.6352L18.8485 15.6347C18.8471 15.6291 18.8458 15.6236 18.8444 15.6179C18.8444 15.6178 18.8444 15.6179 18.8444 15.6178C18.8441 15.6163 18.8438 15.6152 18.8435 15.6138L18.8434 15.6133L18.8425 15.6096L18.8424 15.609C18.842 15.6078 18.8418 15.6066 18.8415 15.6054L18.8413 15.6049L18.8405 15.6014L18.8403 15.6005L18.8395 15.597L18.8393 15.5965L18.8384 15.5926L18.8383 15.5924C18.8362 15.584 18.8342 15.5756 18.8321 15.5672L18.832 15.5669C18.8317 15.5656 18.8314 15.5643 18.831 15.563L18.831 15.5627L18.83 15.5589L18.8299 15.5584L18.8289 15.5546L18.8288 15.5543L18.8279 15.5505L18.8278 15.55C18.8253 15.5403 18.8228 15.5304 18.8203 15.5207H18.8203L18.8192 15.5166L18.8191 15.5164L18.8181 15.5123L18.817 15.5083L18.8169 15.508L18.8159 15.504C18.8158 15.5039 18.8159 15.5041 18.8158 15.5039C18.8133 15.4942 18.8106 15.4844 18.808 15.4747L18.8079 15.4743C18.8076 15.473 18.8072 15.4718 18.8069 15.4705L18.8068 15.4702C18.8065 15.469 18.8061 15.4676 18.8058 15.4664L18.8057 15.466C18.8053 15.4647 18.805 15.4634 18.8046 15.4622L18.8046 15.4619C18.8019 15.4522 18.7993 15.4426 18.7965 15.4329L18.7965 15.4326L18.7954 15.4287L18.7953 15.4284L18.7942 15.4246L18.7941 15.4243L18.7931 15.4203L18.793 15.4202C18.7926 15.4189 18.7923 15.4176 18.7919 15.4163L18.7918 15.416C18.789 15.4063 18.7863 15.3966 18.7835 15.387V15.3869C18.7831 15.3856 18.7827 15.3842 18.7823 15.3829L18.7822 15.3826L18.7811 15.3787L18.781 15.3785C18.7807 15.3772 18.7803 15.3759 18.7799 15.3746L18.7798 15.3743C18.7765 15.3632 18.7733 15.3524 18.77 15.3413L18.7699 15.3411L18.7688 15.3372L18.7687 15.3369L18.7675 15.3332L18.7674 15.3328C18.767 15.3315 18.7667 15.3303 18.7662 15.3289L18.7662 15.3288C18.7633 15.3191 18.7603 15.3095 18.7574 15.2999C18.757 15.2985 18.7565 15.2972 18.7561 15.2958L18.7561 15.2957L18.7548 15.2917L18.7548 15.2916C18.7544 15.2902 18.754 15.2889 18.7535 15.2876V15.2875L18.7523 15.2835L18.7522 15.2834C18.7488 15.2725 18.7454 15.2616 18.7419 15.2507L18.7418 15.2503L18.7405 15.2465L18.7405 15.2463C18.7365 15.2339 18.7325 15.2217 18.7285 15.2094L18.7271 15.2054L18.7271 15.2052L18.7258 15.2015L18.7257 15.201L18.7244 15.1972L18.7243 15.1971C18.7212 15.1877 18.718 15.1781 18.7148 15.1687L18.7146 15.1683L18.7134 15.1646L18.7133 15.1642L18.712 15.1605L18.7119 15.1601L18.7106 15.1564L18.7105 15.1561C18.7068 15.1453 18.7031 15.1346 18.6993 15.1237L18.6992 15.1236C18.6988 15.1223 18.6983 15.121 18.6979 15.1198L18.6978 15.1194L18.6965 15.1157L18.6964 15.1154C18.696 15.1142 18.6955 15.1129 18.6951 15.1118L18.6949 15.1114C18.6911 15.1006 18.6873 15.0899 18.6835 15.0792L18.6834 15.079C18.6829 15.0777 18.6825 15.0765 18.682 15.0751L18.682 15.0749C18.6815 15.0737 18.6811 15.0725 18.6806 15.0713L18.6805 15.0708C18.6648 15.0278 18.6486 14.985 18.6319 14.9426L18.6318 14.9423C18.6266 14.929 18.6213 14.9159 18.616 14.9026L18.6159 14.9026C18.6154 14.9012 18.6148 14.9 18.6143 14.8986L18.6143 14.8986C18.6095 14.8867 18.6046 14.8748 18.5997 14.8629C18.5996 14.8628 18.5997 14.863 18.5997 14.8629C18.5931 14.847 18.5865 14.8314 18.5798 14.8156L18.5797 14.8155C18.5685 14.7892 18.5572 14.7632 18.5456 14.7372L18.5455 14.7369L18.5438 14.7332L18.5438 14.7331C18.5432 14.7318 18.5427 14.7306 18.5421 14.7293L18.542 14.7292C18.5374 14.7188 18.5327 14.7085 18.528 14.6981L18.5279 14.6981C18.5273 14.6967 18.5268 14.6956 18.5262 14.6943L18.5261 14.6941C18.5256 14.6929 18.525 14.6917 18.5245 14.6905L18.5243 14.6902C18.5196 14.6799 18.5148 14.6696 18.5101 14.6594L18.51 14.6592C18.5094 14.6579 18.5088 14.6567 18.5082 14.6555L18.5065 14.6518L18.5064 14.6515L18.5047 14.6478L18.5045 14.6477C18.504 14.6464 18.5034 14.6452 18.5028 14.6439L18.5028 14.6439C18.4985 14.6348 18.4943 14.6259 18.49 14.6169L18.4899 14.6168L18.4882 14.6132L18.488 14.6128L18.4864 14.6094L18.4862 14.6091C18.4857 14.6079 18.4851 14.6067 18.4845 14.6054L18.4844 14.6053C18.4795 14.595 18.4746 14.5849 18.4696 14.5747L18.4695 14.5746C18.4683 14.572 18.4671 14.5696 18.4659 14.567L18.4658 14.5669C18.4607 14.5567 18.4557 14.5465 18.4507 14.5364L18.4506 14.5363L18.4488 14.5326C18.4487 14.5325 18.4488 14.5326 18.4488 14.5325L18.4469 14.5288L18.4468 14.5286L18.445 14.5249L18.4449 14.5249C18.4398 14.5147 18.4347 14.5047 18.4295 14.4945L18.4294 14.4944C18.4288 14.4931 18.4283 14.492 18.4276 14.4908L18.4275 14.4906C18.4204 14.4767 18.4133 14.463 18.406 14.4491L18.406 14.449C18.4053 14.4478 18.4047 14.4466 18.4041 14.4454L18.404 14.4451C18.3987 14.4351 18.3934 14.4251 18.3881 14.4152L18.388 14.4151C18.3873 14.4138 18.3867 14.4126 18.3861 14.4114L18.386 14.4113C18.3854 14.4101 18.3847 14.4089 18.3841 14.4076C18.378 14.3963 18.3719 14.3851 18.3658 14.3739V14.3738C18.3652 14.3727 18.3645 14.3714 18.3638 14.3702L18.3637 14.37L18.3617 14.3664L18.3617 14.3663C18.3556 14.3551 18.3494 14.3441 18.3432 14.3329L18.3431 14.3327C18.3424 14.3315 18.3418 14.3304 18.3411 14.3292L18.341 14.329L18.3391 14.3255L18.339 14.3253C18.3334 14.3154 18.328 14.3056 18.3223 14.2958L18.3223 14.2957L18.3202 14.2921C18.3202 14.292 18.3203 14.2922 18.3202 14.292L18.3182 14.2885L18.318 14.2882L18.316 14.2847L18.3159 14.2846L18.3139 14.2811L18.3138 14.2809C18.3096 14.2735 18.3054 14.2663 18.3012 14.2589L18.3011 14.2588C18.2997 14.2564 18.2983 14.2541 18.2969 14.2517L18.2967 14.2513C18.2961 14.2502 18.2954 14.2491 18.2947 14.2479L18.2946 14.2478C18.289 14.238 18.2833 14.2283 18.2775 14.2185C18.2774 14.2184 18.2775 14.2186 18.2774 14.2185L18.2753 14.2149L18.2752 14.2147C18.2745 14.2136 18.2738 14.2124 18.2732 14.2114L18.273 14.211L18.271 14.2078L18.2708 14.2073C18.265 14.1977 18.2593 14.1881 18.2534 14.1785L18.2533 14.1782C18.2518 14.1758 18.2504 14.1735 18.249 14.1711L18.2489 14.171C18.2482 14.1698 18.2475 14.1687 18.2468 14.1675L18.2467 14.1674C18.2415 14.1589 18.2364 14.1505 18.2312 14.1421L18.2312 14.142L18.229 14.1385L18.229 14.1384C18.2283 14.1373 18.2275 14.1361 18.2268 14.135L18.2267 14.1347C18.226 14.1336 18.2253 14.1324 18.2246 14.1314L18.2245 14.1311L18.2224 14.1278L18.2222 14.1276C18.2163 14.1179 18.2104 14.1085 18.2043 14.0989L18.2042 14.0987L18.2021 14.0953L18.202 14.0951C18.2012 14.094 18.2006 14.0929 18.1998 14.0917L18.1997 14.0915C18.1937 14.0819 18.1877 14.0726 18.1816 14.063L18.1814 14.0628C18.1807 14.0617 18.18 14.0606 18.1792 14.0594L18.1791 14.0593C18.1784 14.0581 18.1777 14.0571 18.1769 14.0559L18.1768 14.0557L18.1746 14.0523L18.1745 14.0522C18.1738 14.051 18.1731 14.0499 18.1723 14.0487L18.1723 14.0487C18.1677 14.0415 18.163 14.0344 18.1584 14.0273L18.1584 14.0273L18.1561 14.0239L18.156 14.0236L18.1539 14.0204L18.1536 14.02L18.1515 14.0167L18.1513 14.0165L18.1492 14.0132L18.149 14.013C18.1435 14.0047 18.1381 13.9966 18.1326 13.9883C18.1325 13.9882 18.1327 13.9884 18.1326 13.9883C18.1319 13.9872 18.1311 13.986 18.1304 13.9849L18.1301 13.9846C18.1294 13.9835 18.1287 13.9824 18.1279 13.9813L18.1278 13.9812C18.1271 13.9801 18.1264 13.979 18.1256 13.9779L18.1254 13.9776C18.1192 13.9683 18.1129 13.959 18.1066 13.9497L18.1064 13.9494L18.1042 13.9461L18.1041 13.9459L18.1018 13.9426L18.1017 13.9424C18.0945 13.9319 18.0875 13.9216 18.0802 13.9111L18.0801 13.9109L18.0779 13.9077L18.0776 13.9074C18.0696 13.8959 18.0615 13.8843 18.0535 13.8729L18.0533 13.8726C18.0526 13.8716 18.0518 13.8705 18.0511 13.8695L18.0509 13.8692C18.0502 13.8682 18.0495 13.8672 18.0487 13.8662L18.0484 13.8657C18.0477 13.8647 18.0469 13.8635 18.0462 13.8625L18.046 13.8623C18.0403 13.8543 18.0346 13.8464 18.0288 13.8383L18.0287 13.8381L18.0264 13.8349L18.0262 13.8347L18.0238 13.8314L18.0237 13.8313C18.0171 13.8221 18.0105 13.813 18.0038 13.8039L18.0038 13.8038L18.0013 13.8005L18.0013 13.8004C18.0005 13.7993 17.9997 13.7982 17.9989 13.7971L17.9987 13.7968L17.9964 13.7937L17.9962 13.7935L17.9938 13.7902L17.9937 13.7902C17.9879 13.7822 17.982 13.7743 17.9761 13.7663H17.9761L17.9736 13.763L17.9735 13.7628C17.9727 13.7618 17.9719 13.7607 17.9712 13.7597L17.9709 13.7593L17.9686 13.7564L17.9683 13.7559C17.9616 13.7469 17.9549 13.738 17.9481 13.7291L17.948 13.7289L17.9455 13.7257L17.9454 13.7256C17.9446 13.7245 17.9438 13.7234 17.943 13.7224L17.9428 13.7222L17.9404 13.719L17.9403 13.7188L17.9377 13.7155C17.9334 13.7099 17.9292 13.7043 17.9248 13.6987H17.9248C17.924 13.6977 17.9231 13.6966 17.9223 13.6955L17.922 13.6951C17.9213 13.6942 17.9205 13.6932 17.9197 13.6922L17.9195 13.6918L17.9172 13.6889L17.9169 13.6884C17.9161 13.6875 17.9154 13.6865 17.9146 13.6855L17.9143 13.6852L17.9119 13.6821L17.9118 13.682C17.9057 13.6742 17.8997 13.6664 17.8935 13.6587C17.8927 13.6576 17.8919 13.6565 17.891 13.6554L17.8908 13.6552L17.8883 13.6521L17.8882 13.652L17.8858 13.6489L17.8855 13.6486C17.8786 13.6398 17.8716 13.631 17.8645 13.6222L17.8644 13.622L17.8619 13.6189L17.8618 13.6188L17.8593 13.6156L17.8591 13.6155L17.8566 13.6123H17.8565C17.8494 13.6035 17.8423 13.5947 17.8352 13.586H17.8352C17.8343 13.5849 17.8335 13.5838 17.8325 13.5827L17.8324 13.5827C17.8235 13.5717 17.8145 13.5609 17.8055 13.55C17.8037 13.5478 17.8019 13.5457 17.8001 13.5435H17.8001C17.6118 13.3179 17.4043 13.1084 17.1801 12.9173C16.8689 12.6526 16.3985 12.6861 16.1294 12.9922C15.8606 13.2981 15.8943 13.7603 16.2048 14.0251C17.7604 15.349 17.9307 17.6628 16.585 19.1933C15.8776 19.9978 14.8497 20.4602 13.7685 20.4602C13.0569 20.4613 12.36 20.2609 11.761 19.8831C11.4148 19.6645 10.954 19.7635 10.7318 20.1041C10.51 20.4441 10.6099 20.8968 10.9552 21.1157C11.0894 21.2005 11.2278 21.2793 11.3702 21.3521L11.3704 21.3522C11.3737 21.3539 11.3772 21.3557 11.3805 21.3574L11.381 21.3576C11.3845 21.3594 11.3877 21.361 11.3912 21.3628L11.3913 21.3629L11.3947 21.3646L11.3951 21.3648C11.3985 21.3665 11.4019 21.3682 11.4052 21.3699L11.4056 21.3701C11.4089 21.3717 11.4122 21.3734 11.4156 21.3751L11.4162 21.3754C11.4194 21.377 11.423 21.3788 11.4263 21.3804L11.4266 21.3805C11.43 21.3822 11.4334 21.3839 11.4368 21.3856L11.4372 21.3858C11.4383 21.3863 11.4392 21.3868 11.4404 21.3874L11.441 21.3876C11.4442 21.3892 11.4475 21.3908 11.4507 21.3924L11.4519 21.3929C11.4551 21.3945 11.4581 21.396 11.4613 21.3975L11.4623 21.398L11.4654 21.3995L11.4655 21.3996L11.4718 21.4027L11.4728 21.4031L11.4758 21.4046L11.4767 21.4051C11.4787 21.406 11.4806 21.4069 11.4825 21.4078L11.4832 21.4082L11.4862 21.4096L11.4874 21.4102C11.4893 21.4111 11.4913 21.412 11.4932 21.4129L11.4938 21.4132L11.4965 21.4145L11.4981 21.4153L11.5008 21.4166L11.5019 21.4172C11.5037 21.418 11.5051 21.4187 11.5069 21.4195L11.5086 21.4204L11.5113 21.4217L11.5125 21.4222C11.5142 21.423 11.5158 21.4238 11.5175 21.4246L11.5191 21.4253L11.5217 21.4266L11.5234 21.4274L11.5281 21.4296L11.5295 21.4302L11.5322 21.4315L11.534 21.4323L11.5364 21.4335C11.5377 21.4341 11.5389 21.4346 11.5401 21.4352L11.5426 21.4364L11.5445 21.4372L11.547 21.4384L11.5489 21.4393L11.5532 21.4413L11.555 21.4421L11.5574 21.4432L11.5597 21.4443C11.5609 21.4448 11.5619 21.4453 11.5632 21.4459L11.5657 21.447L11.568 21.4481L11.57 21.449L11.5733 21.4505L11.5761 21.4518L11.5784 21.4528L11.5806 21.4538L11.583 21.4549L11.5867 21.4566L11.5891 21.4577L11.5911 21.4585L11.5935 21.4596L11.5959 21.4607L11.5994 21.4623L11.6017 21.4634L11.6041 21.4644L11.6065 21.4655L11.6092 21.4667C11.6102 21.4672 11.6113 21.4676 11.6123 21.4681L11.6145 21.4691L11.6171 21.4703L11.619 21.4711C11.6204 21.4717 11.6216 21.4723 11.6231 21.4729L11.6249 21.4737L11.6275 21.4749L11.6295 21.4758C11.6308 21.4763 11.6321 21.4769 11.6333 21.4775L11.6353 21.4784L11.6382 21.4796L11.6401 21.4804L11.6433 21.4818L11.6454 21.4828L11.6488 21.4842L11.6506 21.485L11.6537 21.4863L11.6552 21.487L11.6594 21.4888L11.6612 21.4896L11.6641 21.4909L11.6658 21.4916L11.67 21.4934L11.6716 21.4941L11.6747 21.4954L11.6765 21.4962C11.6779 21.4968 11.6794 21.4975 11.6808 21.4981L11.6817 21.4985L11.6854 21.5001L11.6869 21.5007L11.6907 21.5023L11.6915 21.5027L11.696 21.5046L11.6975 21.5053L11.7009 21.5067L11.7022 21.5073C11.7037 21.5079 11.7051 21.5085 11.7066 21.5091L11.7079 21.5097L11.7114 21.5112L11.7128 21.5118L11.7172 21.5136L11.7184 21.5141C11.7196 21.5146 11.7208 21.5151 11.722 21.5156L11.7233 21.5162L11.7279 21.5181L11.7282 21.5183L11.7327 21.5201L11.7339 21.5206L11.7381 21.5224L11.7386 21.5226C11.7401 21.5232 11.7418 21.5239 11.7433 21.5245L11.7444 21.525L11.7483 21.5266L11.7493 21.527L11.754 21.5289L11.7549 21.5293L11.7586 21.5309L11.7601 21.5314C11.7616 21.5321 11.7632 21.5327 11.7647 21.5333L11.7652 21.5335C11.7666 21.5341 11.768 21.5347 11.7694 21.5353L11.7707 21.5358L11.7752 21.5376C11.7754 21.5377 11.7752 21.5376 11.7754 21.5377L11.7801 21.5396L11.7813 21.5401L11.7853 21.5417L11.7861 21.542L11.7908 21.5439L11.7919 21.5443L11.796 21.546L11.7967 21.5463L11.8016 21.5483L11.8022 21.5485L11.8065 21.5503L11.8075 21.5506C11.8107 21.5519 11.8139 21.5532 11.8171 21.5545L11.8182 21.5549L11.8225 21.5566L11.8231 21.5568C11.8247 21.5574 11.8263 21.5581 11.8279 21.5587L11.8288 21.5591L11.833 21.5607L11.8338 21.561L11.8386 21.5629L11.8393 21.5632L11.8436 21.5649L11.8445 21.5652C11.8478 21.5665 11.8511 21.5678 11.8544 21.5691L11.8552 21.5694C11.8585 21.5707 11.8618 21.5719 11.8651 21.5732L11.8659 21.5736L11.8707 21.5754L11.8708 21.5754C11.8725 21.5761 11.8741 21.5767 11.8759 21.5774L11.8766 21.5777C11.878 21.5782 11.8796 21.5788 11.8811 21.5794L11.8817 21.5796L11.8867 21.5815L11.8871 21.5817L11.8917 21.5834L11.8925 21.5837C11.8958 21.585 11.8991 21.5863 11.9024 21.5875L11.9032 21.5878L11.9081 21.5897L11.9082 21.5897L11.9133 21.5916L11.9139 21.5919L11.9185 21.5936L11.919 21.5938L11.924 21.5957L11.9246 21.5959L11.929 21.5975L11.9299 21.5978L11.9349 21.5997L11.935 21.5997L11.9399 21.6015L11.9407 21.6018C11.944 21.603 11.9473 21.6042 11.9507 21.6055L11.9515 21.6058L11.9563 21.6076L11.9564 21.6076C11.9582 21.6082 11.9599 21.6088 11.9616 21.6095L11.9621 21.6097C11.9637 21.6103 11.9653 21.6109 11.9669 21.6114L11.9673 21.6116L11.9725 21.6135L11.9726 21.6135L11.9777 21.6153L11.9781 21.6155L11.9884 21.6192L11.9889 21.6194C11.9924 21.6206 11.9959 21.6218 11.9994 21.6231L11.9997 21.6232L12.0049 21.625C12.005 21.6251 12.0047 21.625 12.0049 21.625L12.0102 21.6269L12.0105 21.627L12.0153 21.6287L12.016 21.629C12.0194 21.6302 12.0227 21.6313 12.0262 21.6325L12.0268 21.6328C12.0302 21.6339 12.0337 21.6352 12.0371 21.6363L12.0377 21.6365C12.0411 21.6377 12.0445 21.6389 12.048 21.6401L12.0485 21.6403L12.0534 21.642L12.0537 21.6421L12.059 21.6439L12.0592 21.644L12.0642 21.6456L12.0646 21.6458C12.0681 21.647 12.0716 21.6482 12.0751 21.6493L12.0756 21.6495C12.0791 21.6507 12.0825 21.6518 12.086 21.653L12.0864 21.6532C12.0918 21.655 12.097 21.6567 12.1023 21.6585L12.1027 21.6586C12.1062 21.6597 12.1097 21.6609 12.1132 21.6621L12.1136 21.6622C12.1171 21.6633 12.1207 21.6645 12.1242 21.6656L12.1245 21.6657C12.1281 21.6669 12.1316 21.6681 12.1352 21.6692L12.1354 21.6693C12.1408 21.671 12.1463 21.6728 12.1517 21.6745H12.1517C12.1553 21.6757 12.1588 21.6768 12.1624 21.678L12.1628 21.6781C12.1663 21.6792 12.1699 21.6804 12.1735 21.6815L12.1737 21.6815C12.1773 21.6827 12.1809 21.6838 12.1845 21.6849L12.1846 21.685L12.19 21.6867L12.1901 21.6867C12.1938 21.6878 12.1974 21.689 12.201 21.6901H12.2011C12.2047 21.6912 12.2084 21.6923 12.2119 21.6935L12.2122 21.6935C12.2158 21.6946 12.2194 21.6958 12.2231 21.6969H12.2231C12.2322 21.6996 12.2414 21.7024 12.2505 21.7051L12.2507 21.7052C12.2544 21.7063 12.2579 21.7073 12.2616 21.7084C12.2618 21.7084 12.2616 21.7084 12.2618 21.7084C12.2654 21.7095 12.269 21.7106 12.2727 21.7117C12.2729 21.7117 12.2726 21.7116 12.2728 21.7117L12.2783 21.7133H12.2783C12.2819 21.7144 12.2856 21.7154 12.2892 21.7165L12.2894 21.7166C12.2931 21.7176 12.2966 21.7186 12.3002 21.7197L12.3006 21.7198C12.3042 21.7209 12.3078 21.7219 12.3114 21.7229L12.3116 21.723C12.3153 21.724 12.319 21.7251 12.3226 21.7261L12.3227 21.7261C12.3319 21.7287 12.3411 21.7313 12.3504 21.7339L12.3505 21.7339C12.3542 21.735 12.3579 21.7359 12.3616 21.737H12.3616L12.3671 21.7385H12.3672C12.3709 21.7395 12.3746 21.7405 12.3783 21.7415H12.3783C12.382 21.7425 12.3857 21.7435 12.3894 21.7445L12.3896 21.7446C12.3933 21.7456 12.3969 21.7465 12.4006 21.7475L12.4007 21.7476C12.4044 21.7486 12.4081 21.7495 12.4118 21.7505L12.4119 21.7505L12.4174 21.752H12.4175C12.4211 21.753 12.4248 21.7539 12.4285 21.7549L12.4287 21.7549C12.4324 21.7559 12.4361 21.7569 12.4398 21.7578L12.4399 21.7578C12.4436 21.7588 12.4474 21.7598 12.451 21.7607H12.4511C12.4604 21.7631 12.4698 21.7654 12.479 21.7678L12.4792 21.7678C12.483 21.7687 12.4866 21.7696 12.4903 21.7706L12.4905 21.7706C12.4942 21.7715 12.4979 21.7724 12.5016 21.7734H12.5017C12.5111 21.7757 12.5204 21.7779 12.5298 21.7802H12.5299C12.5336 21.7811 12.5373 21.782 12.5411 21.7829L12.5412 21.7829L12.5467 21.7842H12.5468C12.5506 21.7851 12.5543 21.786 12.558 21.7869L12.5581 21.7869C12.5618 21.7877 12.5655 21.7886 12.5692 21.7895L12.5696 21.7896C12.5732 21.7904 12.5768 21.7913 12.5805 21.7921L12.5809 21.7922C12.5846 21.793 12.5883 21.7939 12.592 21.7947H12.5921C12.5977 21.796 12.6033 21.7973 12.6089 21.7985L12.6092 21.7986L12.6203 21.801L12.6206 21.8011C12.6242 21.8019 12.628 21.8028 12.6317 21.8035L12.6319 21.8036C12.6357 21.8044 12.6394 21.8052 12.6431 21.8061H12.6432L12.6488 21.8073L12.6489 21.8073C12.6527 21.8081 12.6563 21.8089 12.6601 21.8097L12.6604 21.8097C12.6641 21.8105 12.6678 21.8113 12.6715 21.8121L12.6719 21.8121C12.6755 21.8129 12.6793 21.8137 12.683 21.8145L12.6833 21.8145C12.6889 21.8157 12.6946 21.8168 12.7002 21.818H12.7003C12.7041 21.8188 12.7078 21.8196 12.7116 21.8203L12.7118 21.8203C12.7156 21.8211 12.7193 21.8219 12.7231 21.8226H12.7232C12.7289 21.8237 12.7346 21.8249 12.7403 21.826H12.7403L12.7517 21.8282L12.7519 21.8283C12.7556 21.829 12.7594 21.8297 12.7631 21.8304L12.7634 21.8305C12.7671 21.8312 12.7709 21.832 12.7747 21.8326L12.7749 21.8327C12.7805 21.8337 12.7862 21.8348 12.7918 21.8359L12.7921 21.8359C12.7958 21.8366 12.7995 21.8373 12.8032 21.838L12.8037 21.8381C12.8075 21.8388 12.8111 21.8394 12.8148 21.8401L12.8153 21.8402L12.8207 21.8412H12.8208L12.8264 21.8422L12.8267 21.8423L12.8321 21.8433L12.8324 21.8433C12.8361 21.844 12.8399 21.8447 12.8435 21.8453L12.844 21.8454C12.8477 21.846 12.8514 21.8467 12.8551 21.8473L12.8556 21.8474C12.8593 21.8481 12.863 21.8487 12.8666 21.8493L12.8673 21.8494L12.8726 21.8503L12.8727 21.8503L12.8784 21.8513L12.8785 21.8513L12.884 21.8523L12.8844 21.8523C12.8881 21.8529 12.8918 21.8536 12.8955 21.8542L12.8961 21.8543C12.8998 21.8549 12.9035 21.8555 12.9072 21.8561L12.9077 21.8562L12.9131 21.8571L12.9132 21.8571L12.9189 21.858L12.9193 21.8581L12.9246 21.859L12.9249 21.859L12.9306 21.8599H12.9307L12.936 21.8608L12.9367 21.8609C12.9403 21.8615 12.9441 21.862 12.9477 21.8626L12.9484 21.8627C12.9521 21.8633 12.9557 21.8638 12.9594 21.8644L12.96 21.8645L12.9654 21.8653H12.9655L12.9712 21.8662L12.9715 21.8662L12.9768 21.867L12.9773 21.8671L12.9829 21.8679H12.983L12.9883 21.8687L12.9892 21.8688C12.9928 21.8694 12.9964 21.8699 13 21.8704L13.001 21.8705L13.0061 21.8713L13.0064 21.8713L13.0118 21.8721L13.0126 21.8722L13.0175 21.8729L13.0182 21.873L13.0237 21.8738L13.024 21.8738L13.0292 21.8745L13.03 21.8747C13.0336 21.8752 13.0373 21.8757 13.0409 21.8762L13.0417 21.8763C13.0454 21.8768 13.049 21.8773 13.0527 21.8777L13.0535 21.8778L13.0586 21.8785L13.0589 21.8786L13.0645 21.8793L13.065 21.8794L13.0702 21.8801L13.0707 21.8801L13.0763 21.8809H13.0764L13.0818 21.8816L13.0826 21.8817C13.0863 21.8822 13.0899 21.8826 13.0935 21.8831L13.0944 21.8832L13.0997 21.8839H13.0998L13.1054 21.8846L13.1061 21.8847L13.1111 21.8853L13.1118 21.8854L13.1173 21.8861L13.1178 21.8861L13.1228 21.8867L13.1238 21.8868C13.1274 21.8873 13.131 21.8877 13.1346 21.8882L13.1356 21.8883C13.1392 21.8887 13.1428 21.8891 13.1464 21.8895L13.1476 21.8897L13.1524 21.8902L13.1529 21.8903L13.1584 21.8909L13.1592 21.891L13.164 21.8916L13.1648 21.8917L13.1703 21.8923L13.1707 21.8923L13.1758 21.8929L13.1768 21.893C13.1804 21.8934 13.1839 21.8937 13.1875 21.8942L13.1888 21.8943L13.1935 21.8948L13.1941 21.8949L13.1994 21.8955L13.2005 21.8956L13.2053 21.8961L13.206 21.8962L13.2115 21.8967L13.2122 21.8968L13.217 21.8973L13.2179 21.8974C13.2216 21.8978 13.2253 21.8981 13.2289 21.8985L13.2299 21.8986C13.2335 21.899 13.2371 21.8993 13.2408 21.8997L13.2417 21.8998L13.2468 21.9003L13.2472 21.9004L13.2527 21.9009L13.2535 21.901L13.2584 21.9015L13.2592 21.9015L13.2647 21.9021L13.2653 21.9021L13.2702 21.9026L13.2712 21.9027C13.2748 21.9031 13.2784 21.9034 13.282 21.9037L13.2832 21.9038L13.2882 21.9043L13.2886 21.9043L13.294 21.9048L13.2951 21.9049L13.3 21.9053L13.3006 21.9054L13.3061 21.9058L13.3068 21.9059L13.3117 21.9063L13.3127 21.9064L13.3182 21.9069H13.3183L13.3235 21.9074L13.3246 21.9075C13.3282 21.9078 13.3319 21.908 13.3355 21.9083L13.3367 21.9085L13.3415 21.9088L13.3421 21.9089L13.3476 21.9093L13.3486 21.9094L13.3532 21.9097L13.3542 21.9098L13.3596 21.9102L13.3604 21.9103L13.3651 21.9106L13.3661 21.9107L13.3716 21.9111L13.3719 21.9111L13.377 21.9115L13.3783 21.9116L13.3831 21.912L13.3837 21.912L13.389 21.9124L13.3903 21.9125L13.3948 21.9128L13.3958 21.9128L13.4011 21.9132L13.4022 21.9133L13.4066 21.9136L13.408 21.9137L13.4133 21.914L13.4139 21.9141L13.4187 21.9144L13.42 21.9145C13.4236 21.9147 13.4271 21.9149 13.4307 21.9151L13.432 21.9152L13.4368 21.9155L13.4374 21.9156L13.4428 21.9159L13.444 21.916L13.4486 21.9162L13.4496 21.9163L13.455 21.9166L13.456 21.9167L13.4605 21.917L13.4617 21.917L13.4671 21.9173H13.4675L13.4725 21.9176L13.4738 21.9177L13.4788 21.918L13.4793 21.918L13.4847 21.9183L13.4858 21.9183L13.4905 21.9186L13.4913 21.9186L13.4968 21.9189L13.4978 21.9189L13.5024 21.9192L13.5035 21.9192L13.5089 21.9195L13.5096 21.9195L13.5144 21.9198L13.5157 21.9199L13.5211 21.9201H13.5213L13.5264 21.9203L13.5279 21.9204L13.5326 21.9206L13.5332 21.9206L13.5385 21.9209L13.5399 21.921L13.5443 21.9211L13.5455 21.9212L13.5508 21.9214L13.5519 21.9214L13.5563 21.9216L13.5576 21.9216L13.5629 21.9218L13.5637 21.9219L13.5684 21.9221L13.5698 21.9221L13.5745 21.9223L13.5752 21.9223L13.5804 21.9225L13.582 21.9226L13.5862 21.9227L13.5875 21.9227L13.5926 21.9229L13.5941 21.9229L13.5982 21.9231L13.5996 21.9231L13.6048 21.9233L13.6059 21.9233L13.6103 21.9235L13.6118 21.9235L13.6171 21.9236H13.6175L13.6224 21.9238L13.624 21.9238L13.6289 21.9239H13.6293L13.6348 21.9241L13.636 21.9241L13.6406 21.9242L13.6416 21.9243L13.6469 21.9244L13.6482 21.9244L13.6525 21.9245L13.6538 21.9246L13.6591 21.9247H13.66L13.6646 21.9248L13.666 21.9248L13.671 21.9249H13.6715L13.6768 21.925L13.6783 21.925L13.6827 21.9251H13.6837L13.6891 21.9252L13.6903 21.9252L13.6947 21.9253H13.696L13.7014 21.9254H13.7022L13.7069 21.9254H13.7083L13.7136 21.9255H13.7142L13.719 21.9255H13.7206L13.7252 21.9256H13.726L13.7313 21.9256H13.7327L13.7372 21.9256H13.7383L13.7436 21.9257H13.745H13.7491H13.7505H13.7558H13.7569H13.7614H13.7628H13.7682L13.7694 21.9254Z" fill="#FFB800"/>
<path d="M13.7695 20.4599C15.8264 20.4599 17.4939 18.8194 17.4939 16.7959C17.4939 14.7723 15.8264 13.1318 13.7695 13.1318C11.7126 13.1318 10.0452 14.7723 10.0452 16.7959C10.0452 18.8194 11.7126 20.4599 13.7695 20.4599Z" fill="#FFE152"/>
<path d="M10.0451 17.5504C9.63342 17.5504 9.30029 17.2437 9.30029 16.8391V16.7961C9.30298 14.369 11.3023 12.4021 13.7694 12.3994C14.7764 12.3958 15.7545 12.7302 16.5422 13.3473C16.8648 13.5986 16.9192 14.0597 16.6637 14.377C16.4082 14.6944 15.9396 14.7479 15.617 14.4965C15.0922 14.0852 14.4404 13.8624 13.7694 13.865C12.1247 13.8667 10.7918 15.178 10.79 16.7961C10.79 17.2008 10.4568 17.5504 10.0451 17.5504Z" fill="#FFEE9D"/>
<path d="M14.8867 16.0631H12.6522C12.4465 16.0631 12.2797 15.899 12.2797 15.6967C12.2797 15.4943 12.4465 15.3303 12.6522 15.3303H15.2591C15.6705 15.33 16.0038 15.0018 16.0035 14.5971C16.0033 14.1927 15.6702 13.865 15.2591 13.8647H12.6522C11.6237 13.8647 10.79 14.6849 10.79 15.6967C10.79 16.7084 11.6237 17.5286 12.6522 17.5286H14.8867C15.0924 17.5286 15.2591 17.6927 15.2591 17.895C15.2591 18.0974 15.0924 18.2614 14.8867 18.2614H12.2797C11.8684 18.2614 11.5349 18.5895 11.5349 18.9942C11.5349 19.3989 11.8684 19.727 12.2797 19.727H14.8867C15.9151 19.727 16.7488 18.9068 16.7488 17.895C16.7488 16.8833 15.9151 16.0631 14.8867 16.0631Z" fill="#FFF7D2"/>
<path d="M1.44836 24.1245H27.0344C27.301 24.1245 27.5172 24.3407 27.5172 24.6073V27.021H0.965576V24.6073C0.965576 24.3407 1.18176 24.1245 1.44836 24.1245V24.1245Z" fill="#005EEE"/>
<path d="M27.5172 7.71078H0.482788C0.216187 7.71078 2.49594e-07 7.49459 2.49594e-07 7.22799V4.68716C-0.000213373 4.4761 0.136719 4.28939 0.337952 4.22616L13.5708 0.119896C13.8505 0.0329513 14.1495 0.0329513 14.4292 0.119896L27.662 4.22616C27.8633 4.28939 28.0002 4.4761 28 4.68716V7.22799C28 7.49459 27.7838 7.71078 27.5172 7.71078Z" fill="#079CFF"/>
<path d="M2.41382 5.44462L13.8553 2.05288C13.9484 2.02404 14.0479 2.02404 14.1411 2.05288L25.804 5.44462H2.41382Z" fill="#0784FF"/>
<path d="M0.482788 26.0552H27.5172C27.7838 26.0552 28 26.2714 28 26.538V27.5035C28 27.7701 27.7838 27.9863 27.5172 27.9863H0.482788C0.216187 27.9863 0 27.7701 0 27.5035V26.538C0 26.2714 0.216187 26.0552 0.482788 26.0552Z" fill="#079CFF"/>
<path opacity="0.24" d="M20.3399 5.44434H25.6501C25.9997 5.44434 26.2832 5.72782 26.2832 6.07748C26.2832 6.42714 25.9997 6.71062 25.6501 6.71062H20.3399C19.9903 6.71062 19.7068 6.42714 19.7068 6.07748C19.7068 5.72782 19.9902 5.44434 20.3399 5.44434Z" fill="white"/>
</svg>
