<svg width="65" height="30" viewBox="0 0 65 30" fill="none" xmlns="http://www.w3.org/2000/svg">
<path d="M9.81787 29.6378C13.8656 29.6378 17.147 26.4424 17.147 22.5008C17.147 18.5591 13.8656 15.3638 9.81787 15.3638C5.77012 15.3638 2.48877 18.5591 2.48877 22.5008C2.48877 26.4424 5.77012 29.6378 9.81787 29.6378Z" fill="#002A56"/>
<path d="M46.4624 29.6378C50.5101 29.6378 53.7915 26.4424 53.7915 22.5008C53.7915 18.5591 50.5101 15.3638 46.4624 15.3638C42.4146 15.3638 39.1333 18.5591 39.1333 22.5008C39.1333 26.4424 42.4146 29.6378 46.4624 29.6378Z" fill="#002A56"/>
<path d="M61.1206 26.0693H6.15283V1.08984H39.7622C41.706 1.08984 43.5701 1.84173 44.9446 3.18024L53.7915 11.7953C59.8631 11.7953 64.7851 16.5883 64.7851 22.5007C64.7853 24.4715 63.1445 26.0693 61.1206 26.0693Z" fill="#009C54"/>
<path d="M53.7909 15.3633H61.1195C63.1434 15.3633 64.784 16.9609 64.784 18.9317V18.9319C64.784 20.9027 63.1434 22.5003 61.1195 22.5003H53.7909C51.7671 22.5003 50.1265 20.9027 50.1265 18.9319V18.9317C50.1265 16.9609 51.7671 15.3633 53.7909 15.3633Z" fill="#2DAD66"/>
<path d="M39.1333 11.7953H35.4689L26.6225 3.18024C25.2478 1.84173 23.3835 1.08968 21.4395 1.08984H0.482372C-2.77997 1.08984 -5.76231 2.88467 -7.22136 5.72613C-8.05498 7.34917 -9.4065 8.66527 -11.0732 9.47687C-13.9912 10.8977 -15.8345 13.8019 -15.8345 16.9789V22.5009C-15.8345 24.4717 -14.1939 26.0693 -12.17 26.0693H46.4622C48.4861 26.0693 50.1267 24.4717 50.1267 22.5009C50.1269 16.5883 45.205 11.7953 39.1333 11.7953C39.1333 11.7953 39.1335 11.7953 39.1333 11.7953Z" fill="#21B950"/>
<path d="M0.656536 22.501H4.321C5.33292 22.501 6.15332 23.2999 6.15332 24.2853C6.15332 25.2707 5.33292 26.0696 4.321 26.0696H0.656536C-0.355387 26.0696 -1.17578 25.2707 -1.17578 24.2853C-1.17578 23.2999 -0.355387 22.501 0.656536 22.501Z" fill="#00963F"/>
<path d="M11.6499 4.6582C12.6618 4.6582 13.482 5.4571 13.482 6.4425V24.2848C13.482 25.2702 12.6616 26.069 11.6497 26.069C10.6378 26.069 9.81738 25.2702 9.81738 24.2848V6.4425C9.81755 5.4571 10.6379 4.6582 11.6499 4.6582Z" fill="#00963F"/>
<path d="M15.3138 4.65771C16.3257 4.65771 17.1461 5.45661 17.1461 6.44201V20.7163C17.1461 21.7017 16.3257 22.5006 15.3138 22.5006C14.3018 22.5006 13.4814 21.7017 13.4814 20.7163V6.44201C13.4816 5.45661 14.302 4.65771 15.3138 4.65771Z" fill="#51C876"/>
<path d="M22.6438 11.7954H40.9663C41.9782 11.7954 42.7986 12.5943 42.7986 13.5797C42.7986 14.5651 41.9782 15.364 40.9663 15.364H22.6438C21.6319 15.364 20.8115 14.5651 20.8115 13.5797C20.8115 12.5943 21.6319 11.7954 22.6438 11.7954Z" fill="#5ACB7D"/>
<path d="M31.8047 29.6378C35.8524 29.6378 39.1338 26.4424 39.1338 22.5008C39.1338 18.5591 35.8524 15.3638 31.8047 15.3638C27.7569 15.3638 24.4756 18.5591 24.4756 22.5008C24.4756 26.4424 27.7569 29.6378 31.8047 29.6378Z" fill="#0F3860"/>
<path d="M31.8051 26.069C33.8289 26.069 35.4695 24.4713 35.4695 22.5005C35.4695 20.5298 33.8289 18.9321 31.8051 18.9321C29.7813 18.9321 28.1406 20.5298 28.1406 22.5005C28.1406 24.4713 29.7813 26.069 31.8051 26.069Z" fill="#BECAD4"/>
<path d="M-4.84131 29.6378C-0.793566 29.6378 2.48778 26.4424 2.48778 22.5008C2.48778 18.5591 -0.793566 15.3638 -4.84131 15.3638C-8.88906 15.3638 -12.1704 18.5591 -12.1704 22.5008C-12.1704 26.4424 -8.88906 29.6378 -4.84131 29.6378Z" fill="#0F3860"/>
<path d="M35.4687 11.7952H53.7914L46.4623 4.6582H28.1396L35.4687 11.7952Z" fill="#0F3860"/>
<path d="M35.469 11.7955H20.8109C18.7871 11.7955 17.1465 10.1979 17.1465 8.22711C17.1465 6.25631 18.7871 4.65869 20.8109 4.65869H28.1399L35.469 11.7955Z" fill="#345779"/>
<path d="M-1.17685 4.65771H6.15173C8.17558 4.65771 9.8162 6.25533 9.8162 8.22613V8.2263C9.8162 10.1971 8.17558 11.7947 6.15173 11.7947H-1.17685C-3.20069 11.7947 -4.84131 10.1971 -4.84131 8.2263V8.22613C-4.84131 6.25533 -3.20069 4.65771 -1.17685 4.65771Z" fill="#345779"/>
<path d="M6.15294 4.65869H-1.17598C-2.18791 4.65869 -3.0083 5.45758 -3.0083 6.44298C-3.0083 7.42838 -2.18791 8.22728 -1.17598 8.22728H6.15294C7.16486 8.22728 7.98526 7.42838 7.98526 6.44298C7.98526 5.45742 7.16486 4.65869 6.15294 4.65869Z" fill="#1A4269"/>
<path d="M26.3075 4.65869H22.6429C21.6309 4.65869 20.8105 5.45758 20.8105 6.44298C20.8105 7.42838 21.6309 8.22728 22.6429 8.22728H26.3073C27.3192 8.22728 28.1396 7.42838 28.1396 6.44298C28.1396 5.45742 27.3194 4.65869 26.3075 4.65869Z" fill="#1A4269"/>
<path d="M46.4625 11.7951V10.0109C46.4625 9.02545 45.6421 8.22656 44.6302 8.22656C43.6182 8.22656 42.7979 9.02545 42.7979 10.0109V11.7951H46.4625Z" fill="#1F456A"/>
<path d="M11.6502 22.501H22.6431C23.655 22.501 24.4754 23.2999 24.4754 24.2853C24.4754 25.2707 23.655 26.0696 22.6431 26.0696H11.6502C10.6383 26.0696 9.81787 25.2707 9.81787 24.2853C9.81787 23.2999 10.6383 22.501 11.6502 22.501Z" fill="#00963F"/>
<path d="M0.656536 1.08984H22.643C23.6549 1.08984 24.4753 1.88874 24.4753 2.87414C24.4753 3.85954 23.6549 4.65843 22.643 4.65843H0.656536C-0.355387 4.65843 -1.17578 3.85954 -1.17578 2.87414C-1.17578 1.88874 -0.355387 1.08984 0.656536 1.08984Z" fill="#70D28F"/>
<path d="M29.9715 1.08984H40.9643C41.9763 1.08984 42.7967 1.88874 42.7967 2.87414C42.7967 3.85954 41.9763 4.65843 40.9643 4.65843H29.9715C28.9596 4.65843 28.1392 3.85954 28.1392 2.87414C28.1392 1.88874 28.9596 1.08984 29.9715 1.08984Z" fill="#1FAD6A"/>
<path d="M33.637 4.65771H44.6299C45.6418 4.65771 46.4622 5.45661 46.4622 6.44201C46.4622 7.42741 45.6418 8.2263 44.6299 8.2263H33.637C32.6251 8.2263 31.8047 7.42741 31.8047 6.44201C31.8047 5.45661 32.6251 4.65771 33.637 4.65771Z" fill="#002852"/>
<path d="M0.656536 11.7954H4.321C5.33292 11.7954 6.15332 12.5943 6.15332 13.5797C6.15332 14.5651 5.33292 15.364 4.321 15.364H0.656536C-0.355387 15.364 -1.17578 14.5651 -1.17578 13.5797C-1.17578 12.5943 -0.355387 11.7954 0.656536 11.7954Z" fill="#5ACB7D"/>
</svg>
